<?xml version="1.0" encoding="UTF-8" standalone="no"?>
<svg
   viewBox="0 0 500 383.92191"
   version="1.1"
   id="svg133"
   sodipodi:docname="404.svg"
   width="500"
   height="383.92191"
   inkscape:version="1.4 (e7c3feb100, 2024-10-09)"
   xmlns:inkscape="http://www.inkscape.org/namespaces/inkscape"
   xmlns:sodipodi="http://sodipodi.sourceforge.net/DTD/sodipodi-0.dtd"
   xmlns="http://www.w3.org/2000/svg"
   xmlns:svg="http://www.w3.org/2000/svg">
  <defs
     id="defs133" />
  <sodipodi:namedview
     id="namedview133"
     pagecolor="#ffffff"
     bordercolor="#000000"
     borderopacity="0.25"
     inkscape:showpageshadow="2"
     inkscape:pageopacity="0.0"
     inkscape:pagecheckerboard="0"
     inkscape:deskcolor="#d1d1d1"
     inkscape:zoom="1.482"
     inkscape:cx="249.66262"
     inkscape:cy="206.14035"
     inkscape:window-width="1920"
     inkscape:window-height="952"
     inkscape:window-x="0"
     inkscape:window-y="0"
     inkscape:window-maximized="1"
     inkscape:current-layer="svg133" />
  <g
     id="freepik--background-complete--inject-8"
     transform="translate(0,-43.63807)">
    <rect
       y="382.39999"
       width="500"
       height="0.25"
       style="fill:#ebebeb"
       id="rect1"
       x="0" />
    <rect
       x="359"
       y="391.92001"
       width="90.900002"
       height="0.25"
       style="fill:#ebebeb"
       id="rect2" />
    <rect
       x="306.32999"
       y="389.20999"
       width="24.889999"
       height="0.25"
       style="fill:#ebebeb"
       id="rect3" />
    <rect
       x="349.51999"
       y="401.20999"
       width="38.59"
       height="0.25"
       style="fill:#ebebeb"
       id="rect4" />
    <rect
       x="52.459999"
       y="399.53"
       width="22.639999"
       height="0.25"
       style="fill:#ebebeb"
       id="rect5" />
    <rect
       x="84"
       y="399.53"
       width="26.889999"
       height="0.25"
       style="fill:#ebebeb"
       id="rect6" />
    <rect
       x="178.31"
       y="395.31"
       width="46.84"
       height="0.25"
       style="fill:#ebebeb"
       id="rect7" />
    <path
       d="M 237,337.8 H 43.91 a 5.71,5.71 0 0 1 -5.7,-5.71 V 60.66 A 5.71,5.71 0 0 1 43.91,55 H 237 a 5.71,5.71 0 0 1 5.71,5.71 V 332.09 A 5.71,5.71 0 0 1 237,337.8 Z M 43.91,55.2 a 5.46,5.46 0 0 0 -5.45,5.46 v 271.43 a 5.46,5.46 0 0 0 5.45,5.46 H 237 a 5.47,5.47 0 0 0 5.46,-5.46 V 60.66 A 5.47,5.47 0 0 0 237,55.2 Z"
       style="fill:#ebebeb"
       id="path7" />
    <path
       d="m 453.31,337.8 h -193.1 a 5.72,5.72 0 0 1 -5.71,-5.71 V 60.66 A 5.72,5.72 0 0 1 260.21,55 h 193.1 a 5.71,5.71 0 0 1 5.69,5.66 v 271.43 a 5.71,5.71 0 0 1 -5.69,5.71 z M 260.21,55.2 a 5.47,5.47 0 0 0 -5.46,5.46 v 271.43 a 5.47,5.47 0 0 0 5.46,5.46 h 193.1 a 5.47,5.47 0 0 0 5.46,-5.46 V 60.66 a 5.47,5.47 0 0 0 -5.46,-5.46 z"
       style="fill:#ebebeb"
       id="path8" />
    <path
       d="m 429.17,262.11 a 17.67,17.67 0 0 0 -4.39,0.57 17.61,17.61 0 0 0 -25.39,-3.16 28.18,28.18 0 0 0 -52.31,11.75 20,20 0 1 0 5.11,37.15 23.81,23.81 0 0 0 44,4.77 26.57,26.57 0 0 0 43.81,-19.51 17.62,17.62 0 0 0 -10.79,-31.57 z"
       style="fill:#f5f5f5"
       id="path9" />
    <path
       d="M 72.67,156.32 A 9.24,9.24 0 0 0 60.51,161.09 9.24,9.24 0 1 0 53.12,178 l 16.93,7.39 7.39,-16.93 a 9.23,9.23 0 0 0 -4.77,-12.14 z"
       style="fill:#f5f5f5"
       id="path10" />
    <path
       d="m 151.61,75.66 a 6.17,6.17 0 0 0 -8.34,-2.59 6.18,6.18 0 0 0 -10.93,5.76 L 138.1,89.76 149,84 a 6.17,6.17 0 0 0 2.61,-8.34 z"
       style="fill:#e6e6e6"
       id="path11" />
    <path
       d="M 403,50.84 A 6.17,6.17 0 0 0 394.66,48.26 6.1860569,6.1860569 0 1 0 383.7,54 l 5.76,10.92 10.92,-5.75 A 6.19,6.19 0 0 0 403,50.84 Z"
       style="fill:#f5f5f5"
       id="path12" />
    <path
       d="m 443,231.57 a 4.58,4.58 0 0 0 -5.22,-3.81 4.56,4.56 0 0 0 -9,1.41 l 1.41,9 9,-1.41 a 4.57,4.57 0 0 0 3.81,-5.19 z"
       style="fill:#ebebeb"
       id="path13" />
    <path
       d="m 350.53,154.26 a 3.73,3.73 0 0 0 -4.68,2.45 3.7400702,3.7400702 0 0 0 -2.23,7.14 l 7.14,2.23 2.23,-7.14 a 3.74,3.74 0 0 0 -2.46,-4.68 z"
       style="fill:#f5f5f5"
       id="path14" />
    <path
       d="m 73.39,63 a 3.75,3.75 0 0 0 -4.69,2.46 3.7338084,3.7338084 0 1 0 -2.22,7.13 l 7.13,2.23 2.23,-7.14 A 3.73,3.73 0 0 0 73.39,63 Z"
       style="fill:#f5f5f5"
       id="path15" />
    <path
       d="m 184.91,229.92 a 24,24 0 0 0 -21.66,-23.86 41.39,41.39 0 0 0 -71.4,-7.37 21.12,21.12 0 0 0 -32.85,22.5 31.91,31.91 0 1 0 44.05,46 33.83,33.83 0 0 0 59.85,-13.36 24,24 0 0 0 22.01,-23.91 z"
       style="fill:#ebebeb"
       id="path16" />
    <path
       d="m 346.8,117.42 a 16.26,16.26 0 0 1 14.68,-16.17 28,28 0 0 1 48.38,-5 14.32,14.32 0 0 1 22.24,15.25 21.62,21.62 0 1 1 -29.85,31.15 22.92,22.92 0 0 1 -40.56,-9 16.25,16.25 0 0 1 -14.89,-16.23 z"
       style="fill:#f0f0f0"
       id="path17" />
  </g>
  <g
     id="freepik--Shadow--inject-8"
     transform="translate(0,-43.63807)">
    <ellipse
       id="freepik--path--inject-8"
       cx="250"
       cy="416.23999"
       rx="193.89"
       ry="11.32"
       style="fill:#f5f5f5" />
  </g>
  <g
     id="freepik--error-404--inject-8"
     transform="translate(0,-43.63807)">
    <path
       d="M 136.11,390.75 H 81.78 A 4.83,4.83 0 0 1 77,385.92 v -22.29 a 4.84,4.84 0 0 1 1.14,-3.11 l 61.4,-73 a 4.84,4.84 0 0 1 3.7,-1.72 h 23.53 a 4.83,4.83 0 0 1 4.83,4.83 v 68 a 4.83,4.83 0 0 0 4.83,4.83 h 6.21 a 4.83,4.83 0 0 1 4.83,4.83 v 17.59 a 4.83,4.83 0 0 1 -4.83,4.83 h -6.21 a 4.83,4.83 0 0 0 -4.83,4.83 v 14 a 4.83,4.83 0 0 1 -4.83,4.83 h -21 a 4.83,4.83 0 0 1 -4.83,-4.83 v -14 a 4.83,4.83 0 0 0 -4.83,-4.79 z m 4.83,-30.63 v -27.2 a 3.38,3.38 0 0 0 -6,-2.19 l -23.11,27.2 a 3.38,3.38 0 0 0 2.57,5.57 h 23.12 a 3.38,3.38 0 0 0 3.42,-3.38 z"
       style="fill:#263238"
       id="path18" />
    <path
       d="m 198.37,350.66 q 0,-36 13,-50.45 13,-14.45 39.53,-14.4 12.76,0 21,3.15 a 38.73,38.73 0 0 1 13.36,8.19 43.62,43.62 0 0 1 8.15,10.6 55.21,55.21 0 0 1 4.79,13 121,121 0 0 1 3.54,29.49 q 0,34.41 -11.65,50.36 -11.65,15.95 -40.09,16 -16,0 -25.79,-5.09 A 41.73,41.73 0 0 1 208,396.53 q -4.58,-7 -7.12,-19.1 a 131,131 0 0 1 -2.51,-26.77 z m 34.84,0.08 q 0,24.15 4.27,33 4.27,8.85 12.37,8.85 a 13,13 0 0 0 9.27,-3.76 q 3.93,-3.75 5.78,-11.86 1.85,-8.11 1.85,-25.26 0,-25.17 -4.27,-33.84 -4.27,-8.67 -12.8,-8.67 -8.72,0 -12.59,8.84 -3.87,8.84 -3.88,32.7 z"
       style="fill:#263238"
       id="path19" />
    <path
       d="m 371.69,390.75 h -54.32 a 4.83,4.83 0 0 1 -4.83,-4.83 v -22.29 a 4.84,4.84 0 0 1 1.13,-3.11 l 61.41,-73 a 4.82,4.82 0 0 1 3.69,-1.72 h 23.54 a 4.83,4.83 0 0 1 4.83,4.83 v 68 a 4.83,4.83 0 0 0 4.86,4.87 h 6.2 a 4.83,4.83 0 0 1 4.83,4.83 v 17.59 a 4.83,4.83 0 0 1 -4.83,4.83 H 412 a 4.83,4.83 0 0 0 -4.83,4.83 v 14 a 4.83,4.83 0 0 1 -4.83,4.83 h -21 a 4.83,4.83 0 0 1 -4.83,-4.83 v -14 a 4.83,4.83 0 0 0 -4.82,-4.83 z m 4.83,-30.63 v -27.2 a 3.38,3.38 0 0 0 -5.95,-2.19 l -23.12,27.2 a 3.38,3.38 0 0 0 2.55,5.57 h 23.11 a 3.38,3.38 0 0 0 3.41,-3.38 z"
       style="fill:#263238"
       id="path20" />
    <path
       d="m 157.82,298.88 c -0.93,2 -1.91,3.8 -2.86,5.66 l -2.8,5.55 -2.8,5.57 c -0.94,1.87 -1.91,3.74 -3.06,5.58 a 28.65,28.65 0 0 1 1.23,-6.31 36.91,36.91 0 0 1 2.37,-6 34.49,34.49 0 0 1 3.4,-5.48 23.17,23.17 0 0 1 4.52,-4.57 z"
       style="fill:#ffffff"
       id="path21" />
    <path
       d="m 161.38,303.58 c -0.87,1.73 -1.77,3.36 -2.65,5 l -2.59,4.9 -2.59,4.92 c -0.87,1.65 -1.76,3.31 -2.82,4.93 a 25.81,25.81 0 0 1 1.19,-5.61 33.57,33.57 0 0 1 2.21,-5.29 29.48,29.48 0 0 1 3.13,-4.82 20.44,20.44 0 0 1 4.12,-4.03 z"
       style="fill:#ffffff"
       id="path22" />
    <path
       d="m 151.66,296.91 c -0.77,1.8 -1.59,3.49 -2.39,5.19 l -2.35,5.09 -2.35,5.1 c -0.8,1.71 -1.61,3.43 -2.59,5.12 a 25.5,25.5 0 0 1 0.93,-5.72 32.18,32.18 0 0 1 2,-5.45 31,31 0 0 1 2.89,-5 21.29,21.29 0 0 1 3.86,-4.33 z"
       style="fill:#ffffff"
       id="path23" />
    <path
       d="m 381,372.91 a 23.45,23.45 0 0 1 4.52,4.6 34.77,34.77 0 0 1 3.48,5.49 37.43,37.43 0 0 1 2.36,6 29.26,29.26 0 0 1 1.24,6.31 c -1.16,-1.84 -2.12,-3.71 -3.07,-5.58 l -2.8,-5.57 -2.8,-5.55 c -0.99,-1.9 -1.93,-3.74 -2.93,-5.7 z"
       style="fill:#ffffff"
       id="path24" />
    <path
       d="m 377.48,377.61 a 20.88,20.88 0 0 1 4.11,4 29.34,29.34 0 0 1 3.13,4.83 31.79,31.79 0 0 1 2.21,5.29 25.25,25.25 0 0 1 1.2,5.61 c -1.06,-1.62 -1.95,-3.28 -2.83,-4.93 l -2.59,-4.92 -2.59,-4.9 c -0.88,-1.59 -1.78,-3.25 -2.64,-4.98 z"
       style="fill:#ffffff"
       id="path25" />
    <path
       d="m 387.19,370.94 a 21.34,21.34 0 0 1 3.92,4.3 30.27,30.27 0 0 1 2.88,5 33.11,33.11 0 0 1 2,5.45 26.08,26.08 0 0 1 0.93,5.72 c -1,-1.7 -1.8,-3.41 -2.59,-5.12 l -2.35,-5.11 -2.35,-5.08 c -0.84,-1.67 -1.63,-3.36 -2.44,-5.16 z"
       style="fill:#ffffff"
       id="path26" />
  </g>
  <g
     id="freepik--Error--inject-8"
     transform="translate(0,-43.63807)">
    <path
       d="M 299.12,401.62 H 312.4 V 405 h -8.31 v 2.55 h 7.71 v 3.27 h -7.71 V 414 h 8.55 v 3.63 h -13.52 z"
       style="fill:#407bff"
       id="path27" />
    <path
       d="m 312.64,419.59 h -13.52 a 1.93,1.93 0 0 1 -1.93,-1.93 v -16 a 1.92,1.92 0 0 1 1.93,-1.93 h 13.28 a 1.92,1.92 0 0 1 1.93,1.93 V 405 a 1.93,1.93 0 0 0 -0.6,2.55 v 3.27 a 1.94,1.94 0 0 0 0.84,3.17 v 3.63 a 1.93,1.93 0 0 1 -1.93,1.97 z m -11.59,-3.86 h 2.13 a 1.91,1.91 0 0 1 -1,-1.7 v -3.17 a 1.94,1.94 0 0 0 0,-3.27 V 405 a 1.92,1.92 0 0 1 0.71,-1.49 h -1.82 z"
       style="fill:#407bff"
       id="path28" />
    <path
       d="m 315.38,417.66 v -16 h 8.26 a 12.11,12.11 0 0 1 3.51,0.39 3.71,3.71 0 0 1 2,1.46 4.52,4.52 0 0 1 -1.39,6.47 5.85,5.85 0 0 1 -1.74,0.64 5,5 0 0 1 1.29,0.59 4.77,4.77 0 0 1 0.79,0.84 7.06,7.06 0 0 1 0.7,1 l 2.4,4.65 h -5.6 l -2.65,-4.9 a 3.8,3.8 0 0 0 -0.9,-1.24 2.06,2.06 0 0 0 -1.21,-0.37 h -0.44 v 6.51 z m 5,-9.54 h 2.09 a 8.25,8.25 0 0 0 1.31,-0.22 1.31,1.31 0 0 0 0.81,-0.51 1.63,1.63 0 0 0 -0.18,-2.12 3,3 0 0 0 -1.85,-0.41 h -2.18 z"
       style="fill:#407bff"
       id="path29" />
    <path
       d="m 331.16,419.59 h -5.6 a 1.94,1.94 0 0 1 -1.7,-1 l -1.57,-2.92 v 2 a 1.94,1.94 0 0 1 -1.93,1.93 h -5 a 1.93,1.93 0 0 1 -1.93,-1.93 v -16 a 1.92,1.92 0 0 1 1.93,-1.93 h 8.26 a 13.61,13.61 0 0 1 4.11,0.49 5.63,5.63 0 0 1 2.94,2.19 6.29,6.29 0 0 1 1.09,3.7 6.42,6.42 0 0 1 -0.83,3.28 6.11,6.11 0 0 1 -1.3,1.56 7.56,7.56 0 0 1 0.83,1.24 l 2.39,4.62 a 1.93,1.93 0 0 1 -1.71,2.82 z m -4.45,-3.86 H 328 l -1,-1.83 a 3.51,3.51 0 0 0 -0.48,-0.68 5.64,5.64 0 0 0 -0.45,-0.51 v 0 a 3.78,3.78 0 0 0 -0.74,-0.3 2,2 0 0 1 -0.67,-0.39 z m -9.4,0 h 1.12 v -4.58 a 1.93,1.93 0 0 1 0.74,-1.52 1.91,1.91 0 0 1 -0.74,-1.51 v -3.26 a 1.94,1.94 0 0 1 0.51,-1.31 h -1.63 z m 5.86,-5.75 a 4.18,4.18 0 0 1 0.93,1 2.15,2.15 0 0 1 -0.05,-0.51 2.12,2.12 0 0 1 0.18,-0.71 h -0.09 c -0.38,0.12 -0.7,0.18 -0.97,0.24 z m 2.23,-6.35 0.23,0.17 a 3.33,3.33 0 0 1 1.18,2.66 3.4,3.4 0 0 1 -0.7,2.09 2.39,2.39 0 0 0 0.61,-0.26 2.59,2.59 0 0 0 0.91,-0.89 2.62,2.62 0 0 0 0.3,-1.33 2.5,2.5 0 0 0 -0.4,-1.49 1.82,1.82 0 0 0 -1,-0.74 6.48,6.48 0 0 0 -1.13,-0.21 z m -2.06,2.37 z"
       style="fill:#407bff"
       id="path30" />
    <path
       d="m 332.81,417.66 v -16 h 8.26 a 12.14,12.14 0 0 1 3.52,0.39 3.69,3.69 0 0 1 2,1.46 4.52,4.52 0 0 1 -1.39,6.47 5.85,5.85 0 0 1 -1.74,0.64 5,5 0 0 1 1.29,0.59 4.72,4.72 0 0 1 0.8,0.84 7.7,7.7 0 0 1 0.69,1 l 2.4,4.65 H 343 l -2.65,-4.9 a 3.66,3.66 0 0 0 -0.9,-1.24 2,2 0 0 0 -1.21,-0.37 h -0.44 v 6.51 z m 5,-9.54 h 2.09 a 8.08,8.08 0 0 0 1.31,-0.22 1.31,1.31 0 0 0 0.81,-0.51 1.45,1.45 0 0 0 0.31,-0.93 1.48,1.48 0 0 0 -0.49,-1.19 3,3 0 0 0 -1.85,-0.41 h -2.18 z"
       style="fill:#407bff"
       id="path31" />
    <path
       d="M 348.59,419.59 H 343 a 1.94,1.94 0 0 1 -1.7,-1 l -1.57,-2.92 v 2 a 1.93,1.93 0 0 1 -1.93,1.93 h -5 a 1.94,1.94 0 0 1 -1.93,-1.93 v -16 a 1.93,1.93 0 0 1 1.93,-1.93 h 8.26 a 13.57,13.57 0 0 1 4.11,0.49 5.61,5.61 0 0 1 2.95,2.19 6.82,6.82 0 0 1 0.25,7 6.28,6.28 0 0 1 -1.29,1.56 8.28,8.28 0 0 1 0.83,1.24 l 2.38,4.62 a 1.93,1.93 0 0 1 -1.71,2.82 z m -4.45,-3.86 h 1.29 l -0.95,-1.83 a 5,5 0 0 0 -0.49,-0.68 3.28,3.28 0 0 0 -0.45,-0.51 v 0 a 3.78,3.78 0 0 0 -0.74,-0.3 2,2 0 0 1 -0.66,-0.39 z m -9.4,0 h 1.12 v -4.58 a 1.93,1.93 0 0 1 0.74,-1.52 1.91,1.91 0 0 1 -0.74,-1.51 v -3.26 a 1.91,1.91 0 0 1 0.52,-1.31 h -1.64 z M 340.6,410 a 4.18,4.18 0 0 1 0.93,1 1.73,1.73 0 0 1 0,-0.51 1.9,1.9 0 0 1 0.17,-0.71 h -0.08 c -0.43,0.1 -0.75,0.16 -1.02,0.22 z m 2.24,-6.35 0.22,0.17 a 3.33,3.33 0 0 1 1.18,2.66 3.4,3.4 0 0 1 -0.7,2.09 2.52,2.52 0 0 0 0.62,-0.26 2.56,2.56 0 0 0 0.9,-0.89 2.62,2.62 0 0 0 0.3,-1.33 2.5,2.5 0 0 0 -0.4,-1.49 1.82,1.82 0 0 0 -1,-0.74 6.51,6.51 0 0 0 -1.12,-0.23 z m -2.07,2.35 z"
       style="fill:#407bff"
       id="path32" />
    <path
       d="m 349.17,409.65 a 7.6,7.6 0 0 1 8.29,-8.31 8.41,8.41 0 0 1 6.17,2.15 8.14,8.14 0 0 1 2.16,6 9.9,9.9 0 0 1 -0.94,4.61 6.78,6.78 0 0 1 -2.74,2.8 9,9 0 0 1 -4.46,1 10.36,10.36 0 0 1 -4.49,-0.86 6.71,6.71 0 0 1 -2.88,-2.74 9.06,9.06 0 0 1 -1.11,-4.65 z m 5,0 a 5.39,5.39 0 0 0 0.9,3.49 3.42,3.42 0 0 0 4.93,0 5.93,5.93 0 0 0 0.88,-3.73 5,5 0 0 0 -0.92,-3.31 3.14,3.14 0 0 0 -2.48,-1 3,3 0 0 0 -2.4,1.06 5.37,5.37 0 0 0 -0.95,3.51 z"
       style="fill:#407bff"
       id="path33" />
    <path
       d="m 357.65,419.86 a 12.2,12.2 0 0 1 -5.33,-1.06 8.57,8.57 0 0 1 -3.7,-3.49 10.89,10.89 0 0 1 -1.38,-5.66 10.64,10.64 0 0 1 17.76,-7.52 10,10 0 0 1 2.74,7.39 11.76,11.76 0 0 1 -1.17,5.51 8.62,8.62 0 0 1 -3.5,3.58 10.92,10.92 0 0 1 -5.42,1.25 z M 359,403.37 a 4.84,4.84 0 0 1 2.38,1.5 6.67,6.67 0 0 1 1.39,4.58 c 0,2.29 -0.43,3.91 -1.32,5 a 4.79,4.79 0 0 1 -2.16,1.46 5.68,5.68 0 0 0 1.89,-0.63 4.85,4.85 0 0 0 2,-2 8,8 0 0 0 0.73,-3.71 6.26,6.26 0 0 0 -1.6,-4.66 5.63,5.63 0 0 0 -3.31,-1.54 z m -3.09,0 a 5.51,5.51 0 0 0 -3.18,1.52 6.38,6.38 0 0 0 -1.62,4.75 7.19,7.19 0 0 0 0.84,3.7 4.77,4.77 0 0 0 2.06,2 6.34,6.34 0 0 0 1.61,0.51 4.87,4.87 0 0 1 -2.05,-1.43 8.95,8.95 0 0 1 0,-9.5 4.84,4.84 0 0 1 2.33,-1.54 z m 1.54,3.65 a 1.09,1.09 0 0 0 -0.94,0.38 3.71,3.71 0 0 0 -0.44,2.26 3.64,3.64 0 0 0 0.44,2.24 1.14,1.14 0 0 0 1,0.38 c 0.7,0 0.9,-0.23 1,-0.35 0.1,-0.12 0.42,-0.56 0.42,-2.49 a 3.16,3.16 0 0 0 -0.44,-2 1.22,1.22 0 0 0 -1.05,-0.44 z"
       style="fill:#407bff"
       id="path34" />
    <path
       d="m 368.53,417.66 v -16 h 8.26 a 12.11,12.11 0 0 1 3.51,0.39 3.71,3.71 0 0 1 2,1.46 4.52,4.52 0 0 1 -1.39,6.47 5.85,5.85 0 0 1 -1.74,0.64 5,5 0 0 1 1.29,0.59 4.77,4.77 0 0 1 0.79,0.84 7.06,7.06 0 0 1 0.7,1 l 2.4,4.65 h -5.6 l -2.65,-4.9 a 3.8,3.8 0 0 0 -0.9,-1.24 2.06,2.06 0 0 0 -1.21,-0.37 h -0.44 v 6.51 z m 5,-9.54 h 2.09 a 8.25,8.25 0 0 0 1.31,-0.22 1.31,1.31 0 0 0 0.81,-0.51 1.63,1.63 0 0 0 -0.18,-2.12 3,3 0 0 0 -1.85,-0.41 h -2.18 z"
       style="fill:#407bff"
       id="path35" />
    <path
       d="m 384.31,419.59 h -5.6 a 1.94,1.94 0 0 1 -1.7,-1 l -1.57,-2.92 v 2 a 1.94,1.94 0 0 1 -1.93,1.93 h -5 a 1.93,1.93 0 0 1 -1.93,-1.93 v -16 a 1.92,1.92 0 0 1 1.93,-1.93 h 8.26 a 13.61,13.61 0 0 1 4.11,0.49 5.63,5.63 0 0 1 2.94,2.19 6.29,6.29 0 0 1 1.1,3.7 6.4,6.4 0 0 1 -0.84,3.28 6.11,6.11 0 0 1 -1.3,1.56 7.56,7.56 0 0 1 0.83,1.24 l 2.39,4.62 a 1.93,1.93 0 0 1 -1.71,2.82 z m -4.45,-3.86 h 1.28 l -0.94,-1.83 a 5,5 0 0 0 -0.49,-0.68 5.64,5.64 0 0 0 -0.45,-0.51 v 0 a 3.78,3.78 0 0 0 -0.74,-0.3 2,2 0 0 1 -0.67,-0.39 z m -9.4,0 h 1.12 v -4.58 a 1.93,1.93 0 0 1 0.74,-1.52 1.91,1.91 0 0 1 -0.74,-1.51 v -3.26 a 1.9,1.9 0 0 1 0.51,-1.31 h -1.63 z m 5.86,-5.75 a 4.18,4.18 0 0 1 0.93,1 1.73,1.73 0 0 1 0,-0.51 1.9,1.9 0 0 1 0.17,-0.71 h -0.09 c -0.42,0.12 -0.74,0.18 -1.01,0.24 z m 2.24,-6.35 0.22,0.17 a 3.33,3.33 0 0 1 1.18,2.66 3.4,3.4 0 0 1 -0.7,2.09 2.58,2.58 0 0 0 1.51,-1.15 3,3 0 0 0 -0.09,-2.82 1.82,1.82 0 0 0 -1,-0.74 6.51,6.51 0 0 0 -1.12,-0.21 z m -2.09,3.23 z m 0,-0.84 z"
       style="fill:#407bff"
       id="path36" />
    <path
       d="M 299.12,401.62 H 312.4 V 405 h -8.31 v 2.55 h 7.71 v 3.27 h -7.71 V 414 h 8.55 v 3.63 h -13.52 z"
       style="fill:#ffffff"
       id="path37" />
    <path
       d="m 315.38,417.66 v -16 h 8.26 a 12.11,12.11 0 0 1 3.51,0.39 3.71,3.71 0 0 1 2,1.46 4.52,4.52 0 0 1 -1.39,6.47 5.85,5.85 0 0 1 -1.74,0.64 5,5 0 0 1 1.29,0.59 4.77,4.77 0 0 1 0.79,0.84 7.06,7.06 0 0 1 0.7,1 l 2.4,4.65 h -5.6 l -2.65,-4.9 a 3.8,3.8 0 0 0 -0.9,-1.24 2.06,2.06 0 0 0 -1.21,-0.37 h -0.44 v 6.51 z m 5,-9.54 h 2.09 a 8.25,8.25 0 0 0 1.31,-0.22 1.31,1.31 0 0 0 0.81,-0.51 1.63,1.63 0 0 0 -0.18,-2.12 3,3 0 0 0 -1.85,-0.41 h -2.18 z"
       style="fill:#ffffff"
       id="path38" />
    <path
       d="m 332.81,417.66 v -16 h 8.26 a 12.14,12.14 0 0 1 3.52,0.39 3.69,3.69 0 0 1 2,1.46 4.52,4.52 0 0 1 -1.39,6.47 5.85,5.85 0 0 1 -1.74,0.64 5,5 0 0 1 1.29,0.59 4.72,4.72 0 0 1 0.8,0.84 7.7,7.7 0 0 1 0.69,1 l 2.4,4.65 H 343 l -2.65,-4.9 a 3.66,3.66 0 0 0 -0.9,-1.24 2,2 0 0 0 -1.21,-0.37 h -0.44 v 6.51 z m 5,-9.54 h 2.09 a 8.08,8.08 0 0 0 1.31,-0.22 1.31,1.31 0 0 0 0.81,-0.51 1.45,1.45 0 0 0 0.31,-0.93 1.48,1.48 0 0 0 -0.49,-1.19 3,3 0 0 0 -1.85,-0.41 h -2.18 z"
       style="fill:#ffffff"
       id="path39" />
    <path
       d="m 349.17,409.65 a 7.6,7.6 0 0 1 8.29,-8.31 8.41,8.41 0 0 1 6.17,2.15 8.14,8.14 0 0 1 2.16,6 9.9,9.9 0 0 1 -0.94,4.61 6.78,6.78 0 0 1 -2.74,2.8 9,9 0 0 1 -4.46,1 10.36,10.36 0 0 1 -4.49,-0.86 6.71,6.71 0 0 1 -2.88,-2.74 9.06,9.06 0 0 1 -1.11,-4.65 z m 5,0 a 5.39,5.39 0 0 0 0.9,3.49 3.42,3.42 0 0 0 4.93,0 5.93,5.93 0 0 0 0.88,-3.73 5,5 0 0 0 -0.92,-3.31 3.14,3.14 0 0 0 -2.48,-1 3,3 0 0 0 -2.4,1.06 5.37,5.37 0 0 0 -0.95,3.51 z"
       style="fill:#ffffff"
       id="path40" />
    <path
       d="m 368.53,417.66 v -16 h 8.26 a 12.11,12.11 0 0 1 3.51,0.39 3.71,3.71 0 0 1 2,1.46 4.52,4.52 0 0 1 -1.39,6.47 5.85,5.85 0 0 1 -1.74,0.64 5,5 0 0 1 1.29,0.59 4.77,4.77 0 0 1 0.79,0.84 7.06,7.06 0 0 1 0.7,1 l 2.4,4.65 h -5.6 l -2.65,-4.9 a 3.8,3.8 0 0 0 -0.9,-1.24 2.06,2.06 0 0 0 -1.21,-0.37 h -0.44 v 6.51 z m 5,-9.54 h 2.09 a 8.25,8.25 0 0 0 1.31,-0.22 1.31,1.31 0 0 0 0.81,-0.51 1.63,1.63 0 0 0 -0.18,-2.12 3,3 0 0 0 -1.85,-0.41 h -2.18 z"
       style="fill:#ffffff"
       id="path41" />
  </g>
  <g
     id="freepik--Character--inject-8"
     transform="translate(0,-43.63807)">
    <path
       d="m 426.5,156.28 a 40.77,40.77 0 0 0 -13,-1.91 34.67,34.67 0 0 0 -12.5,2.41 19.19,19.19 0 0 0 -4.67,2.64 c -0.14,0.12 -0.3,0.23 -0.41,0.34 -0.11,0.11 -0.22,0.19 -0.4,0.38 -0.18,0.19 -0.65,0.67 -1,1 a 22.46,22.46 0 0 0 -1.77,2.29 25,25 0 0 0 -4.14,11 20.27,20.27 0 0 0 0.07,5.62 16.45,16.45 0 0 0 0.61,2.58 17.86,17.86 0 0 0 1,2.46 49.68,49.68 0 0 0 3.71,5.91 c 1.53,2.18 3.3,4.56 5,7.47 a 33.07,33.07 0 0 1 4.17,10.46 26.55,26.55 0 0 1 0.44,6.32 26.24,26.24 0 0 1 -1.09,6.12 29,29 0 0 1 -5.7,10.37 29.56,29.56 0 0 1 -4.25,4.05 30.69,30.69 0 0 1 -4.78,3.09 35,35 0 0 1 -10.36,3.43 43.78,43.78 0 0 1 -10.23,0.48 53.55,53.55 0 0 1 -9.65,-1.58 77.91,77.91 0 0 1 -8.75,-2.83 c -5.56,-2.13 -10.6,-4.57 -15.41,-6.64 a 69.59,69.59 0 0 0 -13.9,-4.68 33,33 0 0 0 -6.59,-0.66 36.5,36.5 0 0 0 -6.69,0.64 51.42,51.42 0 0 0 -13.36,4.72 c -8.74,4.41 -16.82,11.13 -25.18,18.17 v 0 a 7.5,7.5 0 0 1 -9.76,-11.39 c 8.25,-7.19 16.94,-14.9 27.72,-20.66 a 66.64,66.64 0 0 1 17.44,-6.5 51.93,51.93 0 0 1 9.63,-1.11 48.65,48.65 0 0 1 9.77,0.77 85.08,85.08 0 0 1 17.35,5.37 c 5.3,2.17 10.19,4.4 14.91,6.1 a 62.27,62.27 0 0 0 6.92,2.1 35.37,35.37 0 0 0 6.58,0.94 21.38,21.38 0 0 0 11.31,-2.19 13.86,13.86 0 0 0 2.08,-1.42 12.33,12.33 0 0 0 1.66,-1.65 11.13,11.13 0 0 0 2.08,-4 7.86,7.86 0 0 0 0.3,-2 7.65,7.65 0 0 0 -0.18,-1.86 15.63,15.63 0 0 0 -2.08,-4.65 c -1.11,-1.8 -2.63,-3.82 -4.3,-6.09 a 66,66 0 0 1 -5.21,-8 37.15,37.15 0 0 1 -2.24,-5.08 35.8,35.8 0 0 1 -1.4,-5.38 39.08,39.08 0 0 1 -0.41,-10.77 44,44 0 0 1 6.9,-19.63 41.85,41.85 0 0 1 3.17,-4.28 c 0.59,-0.68 1.19,-1.35 1.82,-2 0.29,-0.31 0.71,-0.7 1.08,-1.05 0.37,-0.35 0.76,-0.67 1.14,-1 a 38.29,38.29 0 0 1 9.44,-5.68 54.12,54.12 0 0 1 19.54,-4.18 60.83,60.83 0 0 1 19.4,2.53 10,10 0 0 1 -5.69,19.13 z"
       style="fill:#263238"
       id="path42" />
    <path
       d="m 426.26,157.09 a 40.82,40.82 0 0 0 -16.72,-2 33.88,33.88 0 0 0 -8,1.72 20,20 0 0 0 -5.92,3.22 l -0.57,0.49 A 9.6465875,9.6465875 0 0 1 382,146.31 a 38,38 0 0 1 12.17,-8 53.86,53.86 0 0 1 12.73,-3.55 61.83,61.83 0 0 1 25.68,1.64 10.834302,10.834302 0 1 1 -5.72,20.9 l -0.53,-0.16 z"
       style="fill:#407bff"
       id="path43" />
    <path
       d="m 239.8,280.85 3.71,5.78 c -3.73,1.95 -7.63,1.66 -11.61,1.66 -1.69,-7.82 7.9,-7.44 7.9,-7.44 z"
       style="fill:#263238"
       id="path44" />
    <path
       d="m 217.19,250 c 4.73,13.61 22.27,31.66 22.27,31.66 0,0 -7.4,1.48 -5.39,6.59 h 10.33 l 22.24,-4.19 a 3,3 0 0 0 2.28,-3.41 l -8.21,-27.54 z"
       style="fill:#407bff"
       id="path45" />
    <path
       d="m 303.46,257.79 2,8.11 c 3.92,-1.55 7.23,-2.61 8.93,-6.25 -1.97,-5.06 -10.93,-1.86 -10.93,-1.86 z"
       style="fill:#263238"
       id="path46" />
    <path
       d="m 285.9,216.18 c 7,12.54 21.76,43.12 21.76,43.12 0,0 7.58,0.32 6.57,5.65 l -29.39,7.26 A 3.15,3.15 0 0 1 281.2,271 l -21,-17.78 c 11.46,-7 24.8,-25.37 25.7,-37.04 z"
       style="fill:#407bff"
       id="path47" />
    <path
       d="m 272.28,242.49 a 54.33,54.33 0 0 1 -12,10.77 l 6,4.89 c 6.47,-5.79 8.31,-11.99 6,-15.66 z"
       style="opacity:0.1"
       id="path48" />
    <path
       d="m 264.8,179.77 c 8.16,1.39 42.05,-3.21 44.57,-3.33 0.27,-1.87 1.13,-6.5 3.16,-5.68 2.03,0.82 3.07,4.32 2.66,6 4.81,-0.86 11.13,9 3.94,17 -10.53,11.82 -49,13.63 -49,13.63 0,0 -20.87,-25.66 -5.33,-27.62 z"
       style="fill:#407bff"
       id="path49" />
    <path
       d="m 267.34,195.5 a 11.12,11.12 0 0 0 -4.82,0.53 85.51,85.51 0 0 0 7.62,11.36 c 0,0 7.76,-0.37 17.26,-1.83 -5.23,-3.74 -13.52,-9.01 -20.06,-10.06 z"
       style="opacity:0.1"
       id="path50" />
    <path
       d="m 315.19,176.73 c 4.86,-2 8.26,-3 9.38,-1.33 1.12,1.67 -0.38,5.18 -5.08,6.09 -4.31,-2.7 -4.3,-4.76 -4.3,-4.76 z"
       style="fill:#407bff"
       id="path51" />
    <path
       d="m 318.35,180.89 c 5.12,-0.17 8.55,0.13 9,2 0.45,1.87 -2.13,4.59 -6.71,3.8 -3.01,-3.92 -2.29,-5.8 -2.29,-5.8 z"
       style="fill:#407bff"
       id="path52" />
    <path
       d="m 321.58,186.12 c 3.29,1.53 5.31,2.87 4.71,4.48 -0.6,1.61 -3.45,2.85 -6,0.75 -0.03,-4.02 1.29,-5.23 1.29,-5.23 z"
       style="fill:#407bff"
       id="path53" />
    <path
       d="m 202.15,205.34 c -3.76,7.37 -27.72,31.77 -29.33,33.73 -1.66,-0.91 -5.88,-3 -6.43,-0.87 -0.55,2.13 1.62,5.05 3.18,5.7 -3.56,3.34 0.53,14.29 11.3,13.35 15.77,-1.38 40.22,-31.11 40.22,-31.11 0,0 -8.09,-32.09 -18.94,-20.8 z"
       style="fill:#407bff"
       id="path54" />
    <path
       d="m 213.23,216.78 a 11.4,11.4 0 0 1 3.31,-3.55 84.67,84.67 0 0 1 4.55,12.91 c 0,0 -4.93,6 -11.79,12.73 0.13,-6.42 0.86,-16.22 3.93,-22.09 z"
       style="opacity:0.1"
       id="path55" />
    <path
       d="m 169.57,243.9 c -4.53,2.68 -7.34,4.83 -6.67,6.72 0.67,1.89 4.38,2.8 7.92,-0.42 0.41,-5.07 -1.25,-6.3 -1.25,-6.3 z"
       style="fill:#407bff"
       id="path56" />
    <path
       d="m 171,248.93 c -3.2,4 -5,6.92 -3.74,8.41 1.26,1.49 4.94,1 7.05,-3.12 C 173,249.47 171,248.93 171,248.93 Z"
       style="fill:#407bff"
       id="path57" />
    <path
       d="m 173.28,254.64 c -0.75,3.55 -0.88,6 0.78,6.46 1.66,0.46 4.34,-1.06 4.16,-4.34 -3.22,-2.45 -4.94,-2.12 -4.94,-2.12 z"
       style="fill:#407bff"
       id="path58" />
    <path
       d="m 260.73,253.21 v -0.06 l -13.3,-1 c -0.27,5.73 6.4,9.36 15.36,7.82 z"
       style="opacity:0.1"
       id="path59" />
    <path
       d="m 263.19,184.37 -27.44,11.75 -27.43,11.75 c 0,0 2.92,35.46 11.92,47.61 9,12.15 26.38,8.41 41.73,1.83 15.35,-6.58 30,-16.57 27.46,-31.47 -2.54,-14.9 -26.24,-41.47 -26.24,-41.47 z"
       style="fill:#407bff"
       id="path60" />
    <path
       d="m 251.25,191 -14.94,6.4 -14.93,6.4 c 0.22,-2.91 -5.88,24.16 4.52,38.59 6.78,9.4 19.44,6.82 30.57,2.05 11.13,-4.77 21.72,-12.15 19.59,-23.54 C 272.8,203.43 249,189.18 251.25,191 Z"
       style="opacity:0.2;fill:#ffffff"
       id="path61" />
    <path
       d="m 246.5,195.22 -10,4.26 -9.95,4.27 c 0.07,-2.1 -3.38,17.37 4,28.09 4.83,7 13.34,5.44 20.76,2.26 7.42,-3.18 14.42,-8.27 12.69,-16.59 -2.59,-12.75 -19.08,-23.68 -17.5,-22.29 z"
       style="opacity:0.2;fill:#ffffff"
       id="path62" />
    <ellipse
       cx="174.74001"
       cy="248.92999"
       rx="3.6900001"
       ry="4.77"
       transform="rotate(-21.86,174.71594,248.89272)"
       style="opacity:0.2;fill:#ffffff"
       id="ellipse62" />
    <path
       d="m 319.48,185.84 c 0.19,2.63 -1.3,4.88 -3.33,5 -2.03,0.12 -3.84,-1.86 -4,-4.48 -0.16,-2.62 1.3,-4.88 3.33,-5 2.03,-0.12 3.81,1.86 4,4.48 z"
       style="opacity:0.2;fill:#ffffff"
       id="path63" />
    <path
       d="M 175.69,120 C 135.82,91.78 74.56,109.09 69.75,119.75 c -5.11,11.35 50.37,41.92 64,71.46 19.9,-36.97 41.94,-71.21 41.94,-71.21 z"
       style="fill:#263238"
       id="path64" />
    <path
       d="m 161,131.57 c -31.56,-22 -76.06,-12.1 -78.94,-4.6 -3.07,8 40.28,32.35 52.39,54.25 C 146.8,155.37 161,131.57 161,131.57 Z"
       style="opacity:0.5;fill:#407bff"
       id="path65" />
    <path
       d="m 164.93,126.23 c -8.94,0.6 -16.51,3.6 -23.18,10.64 a 18.31,18.31 0 0 1 17.64,3.65 z"
       style="fill:#263238"
       id="path66" />
    <path
       d="M 223.4,99.55 C 242.56,39.09 310.8,38.85 324.4,48 334.73,55 290.74,82.93 302.53,123.25 262.85,109.67 223.4,99.55 223.4,99.55 Z"
       style="fill:#263238"
       id="path67" />
    <path
       d="m 241.43,98.24 c 16,-35 53.32,-49 70.75,-45.87 16.48,2.94 -32.76,41.37 -22.7,75.2 -23.78,-16 -48.05,-29.33 -48.05,-29.33 z"
       style="opacity:0.5;fill:#407bff"
       id="path68" />
    <path
       d="m 240.34,92.84 a 26.56,26.56 0 0 1 20.33,-2.07 14.65,14.65 0 0 0 -10.7,9.68 z"
       style="fill:#263238"
       id="path69" />
    <path
       d="m 241.17,90 a 21.2,21.2 0 0 1 15.26,-5.7 11.69,11.69 0 0 0 -6.3,9.63 z"
       style="fill:#263238"
       id="path70" />
    <path
       d="m 314.33,126.34 c 10.08,23.52 -26.28,52 -76.9,73.69 -50.62,21.69 -96.32,28.37 -106.43,4.84 -10.11,-23.53 14.24,-80.11 64.86,-101.8 50.62,-21.69 108.39,-0.26 118.47,23.27 z"
       style="fill:#407bff"
       id="path71" />
    <path
       d="m 294.35,128.58 c 9.34,21.81 -19.14,46.81 -60,64.31 -40.86,17.5 -78.59,20.87 -87.93,-0.95 -9.34,-21.82 13.24,-60.57 54.08,-78.06 40.84,-17.49 84.5,-7.12 93.85,14.7 z"
       style="opacity:0.1"
       id="path72" />
    <path
       d="m 212.17,160.37 c -0.88,-2.06 1.81,-4.42 5.66,-6.08 3.85,-1.66 7.43,-2 8.31,0.09 0.88,2.09 -0.47,7.54 -4.33,9.2 -3.86,1.66 -8.76,-1.15 -9.64,-3.21 z"
       style="fill:#263238"
       id="path73" />
    <path
       d="m 220.34,178.74 c -0.59,-1.4 2.24,-3.43 6.1,-5.08 3.86,-1.65 7.28,-2.3 7.87,-0.91 0.59,1.39 -1.33,5.53 -5.18,7.18 -3.85,1.65 -8.19,0.2 -8.79,-1.19 z"
       style="opacity:0.3"
       id="path74" />
    <path
       d="m 148.91,161.77 c 5.51,-15.78 18.1,-27.49 30.94,-30.42 21.65,-4.94 28,22.17 17.54,40.86 -11.68,20.92 -37.48,17.73 -40,8.16 -3.63,6.37 -18.39,9.7 -8.48,-18.6 z"
       style="opacity:0.4;fill:#ffffff"
       id="path75" />
    <path
       d="m 197.4,144 c 0,0 -1.47,19.21 -11.61,26 -10.14,6.79 -25.12,-1.53 -25.12,-1.53 0,0 1.47,-19.2 11.61,-26 10.14,-6.8 25.12,1.53 25.12,1.53 z"
       style="fill:#ffffff"
       id="path76" />
    <path
       d="m 160.67,168.37 a 43.31,43.31 0 0 1 2,-13.88 31.08,31.08 0 0 1 2.86,-6.58 20.46,20.46 0 0 1 4.71,-5.65 15.72,15.72 0 0 1 6.74,-3.21 20.18,20.18 0 0 1 7.3,-0.2 31.45,31.45 0 0 1 13.1,5.1 47.32,47.32 0 0 0 -13.3,-3 20.63,20.63 0 0 0 -6.5,0.6 13.34,13.34 0 0 0 -5.62,2.82 18.76,18.76 0 0 0 -4.23,4.87 l -0.46,0.69 -0.41,0.73 c -0.26,0.49 -0.55,1 -0.8,1.47 -0.47,1 -1,2 -1.39,3.07 a 80.81,80.81 0 0 0 -4,13.17 z"
       style="fill:#263238"
       id="path77" />
    <path
       d="m 224.45,132.36 c 0,0 14.92,12.19 26.79,9.5 11.87,-2.69 16.22,-19.24 16.22,-19.24 0,0 -14.91,-12.19 -26.79,-9.5 -11.88,2.69 -16.22,19.24 -16.22,19.24 z"
       style="fill:#ffffff"
       id="path78" />
    <path
       d="m 267.46,122.62 a 81.64,81.64 0 0 0 -12.29,-6.17 c -1,-0.42 -2.13,-0.74 -3.19,-1.1 -0.53,-0.17 -1.08,-0.29 -1.62,-0.44 l -0.8,-0.21 -0.82,-0.14 a 19,19 0 0 0 -6.44,-0.3 13.52,13.52 0 0 0 -5.92,2.13 20.35,20.35 0 0 0 -4.91,4.29 46.93,46.93 0 0 0 -7,11.68 31.35,31.35 0 0 1 5.34,-13 20.29,20.29 0 0 1 5.18,-5.15 15.71,15.71 0 0 1 7,-2.66 20.44,20.44 0 0 1 7.33,0.49 31,31 0 0 1 6.68,2.46 43.44,43.44 0 0 1 11.46,8.12 z"
       style="fill:#263238"
       id="path79" />
    <circle
       cx="185.31"
       cy="156"
       r="10.83"
       transform="rotate(-13.67,185.33735,156.01127)"
       style="fill:#263238"
       id="circle79" />
    <path
       d="m 176.61,156.65 a 4.56,4.56 0 1 0 2.39,-6 4.56,4.56 0 0 0 -2.39,6 z"
       style="fill:#ffffff"
       id="path80" />
    <circle
       cx="241.10001"
       cy="132.09"
       r="10.83"
       transform="rotate(-68.19,241.11015,132.09581)"
       style="fill:#263238"
       id="circle80" />
    <path
       d="m 232.4,132.74 a 4.56,4.56 0 1 0 2.39,-6 4.55,4.55 0 0 0 -2.39,6 z"
       style="fill:#ffffff"
       id="path81" />
    <path
       d="m 186.9,156.67 a 1.82,1.82 0 1 0 0.95,-2.4 1.83,1.83 0 0 0 -0.95,2.4 z"
       style="fill:#ffffff"
       id="path82" />
    <path
       d="m 242.69,132.76 a 1.82,1.82 0 1 0 1,-2.39 1.81,1.81 0 0 0 -1,2.39 z"
       style="fill:#ffffff"
       id="path83" />
    <path
       d="m 236.88,166.87 c -0.55,0.35 -1.1,0.71 -1.67,1 -0.57,0.29 -1.2,0.57 -1.83,0.8 a 12.69,12.69 0 0 1 -4,0.71 10.53,10.53 0 0 1 -4.07,-0.88 9.54,9.54 0 0 1 -3.43,-2.55 l 1.63,-0.7 a 9.71,9.71 0 0 1 -0.52,4.25 10.52,10.52 0 0 1 -2.17,3.55 12.42,12.42 0 0 1 -3.27,2.4 19.39,19.39 0 0 1 -1.84,0.77 c -0.64,0.19 -1.28,0.35 -1.91,0.5 0.57,-0.34 1.14,-0.65 1.7,-1 0.56,-0.35 1.08,-0.67 1.58,-1.07 a 14.32,14.32 0 0 0 2.65,-2.56 10.24,10.24 0 0 0 1.62,-3.17 9.51,9.51 0 0 0 0.36,-1.73 7.25,7.25 0 0 0 0,-1.68 0.92,0.92 0 0 1 0.78,-1 0.94,0.94 0 0 1 0.85,0.34 8.46,8.46 0 0 0 1.21,1.17 11,11 0 0 0 1.5,0.92 10.45,10.45 0 0 0 3.41,1 13.91,13.91 0 0 0 3.69,-0.16 c 0.63,-0.08 1.24,-0.28 1.87,-0.4 0.63,-0.12 1.23,-0.33 1.86,-0.51 z"
       style="fill:#263238"
       id="path84" />
    <path
       d="m 222.61,166.35 a 0.93,0.93 0 0 1 -0.84,-0.55 L 219,159.29 a 0.91,0.91 0 0 1 0.48,-1.19 0.9,0.9 0 0 1 1.2,0.48 l 2.79,6.5 a 0.91,0.91 0 0 1 -0.84,1.27 z"
       style="fill:#263238"
       id="path85" />
    <path
       d="m 131.72,180.23 c -8.11,3.81 -14,11.91 -15.47,21.5 7.16,-8.74 15.51,-6.17 15.51,-6.17 z"
       style="fill:#407bff"
       id="path86" />
    <path
       d="M 132.55,203.86 A 21.62,21.62 0 0 0 134,224 c -0.08,-8.6 6.06,-11.16 6.06,-11.16 z"
       style="fill:#407bff"
       id="path87" />
    <path
       d="m 132.08,190.66 c -8.17,6.1 -12.85,16.47 -12.36,27.51 6,-11.39 15.9,-10.42 15.9,-10.42 z"
       style="fill:#407bff"
       id="path88" />
    <path
       d="m 296,109.84 c 8.35,-3.24 18.25,-1.88 26.24,3.63 -11.27,-0.84 -15.17,7 -15.17,7 z"
       style="fill:#407bff"
       id="path89" />
    <path
       d="m 309.86,126.34 c 6.73,-1.09 14.07,-0.24 18.57,4.14 a 23.44,23.44 0 0 0 -15.1,5.5 z"
       style="fill:#407bff"
       id="path90" />
    <path
       d="m 307.61,125.36 c 6.11,3 11.57,8 12.67,14.19 a 23.41,23.41 0 0 0 -15.48,-4.34 z"
       style="fill:#407bff"
       id="path91" />
    <path
       d="m 303.32,117.3 c 10.05,-1.71 20.78,2.06 28.44,10 -12.38,-3.51 -18.51,4.32 -18.51,4.32 z"
       style="fill:#407bff"
       id="path92" />
    <path
       d="m 190,107.53 c -0.38,-5.66 2.35,-10.53 9.11,-15.56 -1.42,8.08 4.43,10.1 4.43,10.1 z"
       style="fill:#407bff"
       id="path93" />
    <path
       d="m 197.38,104.38 c 1.34,-6.58 8.08,-13 17.89,-17.13 -7,7.54 -1.36,12.22 -1.36,12.22 z"
       style="fill:#407bff"
       id="path94" />
    <path
       d="m 141.59,222.55 a 0.49,0.49 0 0 1 -0.25,-0.08 0.45,0.45 0 0 1 -0.12,-0.63 c 26.51,-39.62 74.75,-55.25 75.23,-55.4 a 0.47,0.47 0 0 1 0.58,0.3 0.46,0.46 0 0 1 -0.3,0.57 c -0.48,0.15 -48.42,15.69 -74.76,55 a 0.43,0.43 0 0 1 -0.38,0.24 z"
       style="fill:#263238"
       id="path95" />
    <path
       d="m 148.89,247.51 a 0.4,0.4 0 0 1 -0.15,0 0.46,0.46 0 0 1 -0.29,-0.58 c 18.3,-53.45 66.2,-76.61 66.68,-76.83 a 0.45,0.45 0 0 1 0.6,0.21 0.45,0.45 0 0 1 -0.21,0.61 c -0.48,0.23 -48,23.23 -66.2,76.31 a 0.47,0.47 0 0 1 -0.43,0.28 z"
       style="fill:#263238"
       id="path96" />
    <path
       d="m 227.8,162.53 a 0.43,0.43 0 0 1 -0.39,-0.23 0.44,0.44 0 0 1 0.16,-0.62 c 0.44,-0.26 44.51,-25.33 91.65,-18.19 a 0.44,0.44 0 0 1 0.38,0.51 0.48,0.48 0 0 1 -0.52,0.39 c -46.81,-7.1 -90.61,17.82 -91,18.08 a 0.46,0.46 0 0 1 -0.28,0.06 z"
       style="fill:#263238"
       id="path97" />
    <path
       d="m 322.38,165.89 a 0.32,0.32 0 0 1 -0.14,0 c -55.8,-18 -90.41,-2 -90.76,-1.82 a 0.45400991,0.45400991 0 1 1 -0.39,-0.82 c 0.34,-0.17 35.25,-16.36 91.43,1.77 a 0.47,0.47 0 0 1 0.29,0.58 0.45,0.45 0 0 1 -0.43,0.29 z"
       style="fill:#263238"
       id="path98" />
  </g>
  <g
     id="freepik--ball-of-yarn--inject-8"
     transform="translate(0,-43.63807)">
    <circle
       cx="202.28999"
       cy="394.69"
       r="22.969999"
       transform="rotate(-47.2,202.25206,394.65977)"
       style="fill:#407bff"
       id="circle98" />
    <path
       d="m 266.75,418.62 c -11.38,0 -15.4,-4.31 -19.28,-8.47 a 33.43,33.43 0 0 0 -4.21,-4 c -5.82,-4.44 -15,-6.47 -19.63,-4.34 a 1,1 0 0 1 -0.81,-1.75 c 5.3,-2.43 15.19,-0.34 21.61,4.55 a 36.26,36.26 0 0 1 4.46,4.25 c 3.76,4.05 7.32,7.87 17.86,7.87 a 14.25,14.25 0 0 0 12.74,-7.16 11.52,11.52 0 0 0 0.15,-11.64 c -2.39,-3.85 -7.31,-5.81 -13.87,-5.5 a 1,1 0 1 1 -0.09,-1.93 c 7.29,-0.33 12.83,1.94 15.6,6.41 a 13.48,13.48 0 0 1 -0.1,13.6 16.15,16.15 0 0 1 -14.43,8.11 z"
       style="fill:#407bff"
       id="path99" />
    <path
       d="m 212,412.2 a 51,51 0 0 1 -32.91,-12.48 1,1 0 0 1 1.28,-1.44 c 8,7.14 22.28,13.9 38.21,11.5 a 1,1 0 1 1 0.29,1.91 46.26,46.26 0 0 1 -6.87,0.51 z"
       style="fill:#407bff"
       id="path100" />
    <path
       d="m 209.48,415.06 c -11.79,0 -21.86,-4.64 -30.65,-14.1 a 1,1 0 0 1 0,-1.36 1,1 0 0 1 1.37,0 c 9.73,10.48 21.1,14.77 34.75,13.15 a 1,1 0 1 1 0.23,1.91 47.29,47.29 0 0 1 -5.7,0.4 z"
       style="fill:#407bff"
       id="path101" />
    <path
       d="m 192.06,416.22 a 1,1 0 0 1 -1,-0.9 c -0.84,-11.28 3.05,-29.24 13.61,-43.93 a 1,1 0 0 1 1.57,1.12 C 196,386.82 192.21,404.25 193,415.18 a 1,1 0 0 1 -0.89,1 z"
       style="fill:#407bff"
       id="path102" />
    <path
       d="m 182.47,407.27 a 1,1 0 0 1 -0.52,-0.15 1,1 0 0 1 -0.3,-1.33 c 3.36,-5.31 15.84,-23.12 35.4,-29.37 a 1,1 0 0 1 1.21,0.62 1,1 0 0 1 -0.62,1.21 c -18.94,6.06 -31.09,23.4 -34.36,28.57 a 1,1 0 0 1 -0.81,0.45 z"
       style="fill:#407bff"
       id="path103" />
    <path
       d="m 182.47,407.27 a 0.92,0.92 0 0 1 -0.36,-0.07 1,1 0 0 1 -0.54,-1.25 55.26,55.26 0 0 1 33,-31.36 1,1 0 0 1 0.64,1.82 53.33,53.33 0 0 0 -31.88,30.26 1,1 0 0 1 -0.86,0.6 z"
       style="fill:#407bff"
       id="path104" />
    <path
       d="m 189.21,414.54 a 1,1 0 0 1 -1,-0.86 c -2.42,-20.84 4.42,-32.76 12.18,-42.53 a 1,1 0 0 1 1.35,-0.16 1,1 0 0 1 0.16,1.36 c -7.5,9.45 -14.11,21 -11.77,41.11 a 1,1 0 0 1 -0.85,1.07 z"
       style="fill:#407bff"
       id="path105" />
    <path
       d="m 186.53,412.36 a 1,1 0 0 1 -0.93,-0.7 c -3,-11.05 -0.77,-28.33 11.47,-40.18 a 1,1 0 0 1 1.36,0 1,1 0 0 1 0,1.37 c -11.15,10.79 -13.95,27.42 -10.95,38.27 a 1,1 0 0 1 -0.67,1.19 z"
       style="fill:#407bff"
       id="path106" />
    <path
       d="m 225,398.86 a 1,1 0 0 1 -0.56,-0.18 C 210.14,388.39 192.7,384.6 181.77,385.42 a 1,1 0 0 1 -0.14,-1.93 c 11.28,-0.83 29.24,3.05 43.94,13.62 a 1,1 0 0 1 -0.57,1.75 z"
       style="fill:#407bff"
       id="path107" />
    <path
       d="m 225.2,396.19 a 0.88,0.88 0 0 1 -0.39,-0.08 c -12.82,-5.69 -32.22,-6.44 -45.12,-1.76 a 1,1 0 1 1 -0.66,-1.81 c 13.32,-4.84 33.33,-4.06 46.56,1.81 a 1,1 0 0 1 0.49,1.27 1,1 0 0 1 -0.88,0.57 z"
       style="fill:#407bff"
       id="path108" />
    <path
       d="m 225.16,393.49 a 1,1 0 0 1 -0.71,-0.31 c -9.51,-10.34 -21.83,-14 -40,-11.91 a 1,1 0 1 1 -0.23,-1.91 c 18.56,-2.16 31.78,1.82 41.61,12.52 a 1,1 0 0 1 -0.71,1.61 z"
       style="fill:#407bff"
       id="path109" />
    <path
       d="m 224.44,389.57 a 1,1 0 0 1 -0.68,-0.29 c -11.89,-11.86 -28.66,-13.57 -36.25,-11 a 1,1 0 0 1 -0.62,-1.83 c 8.05,-2.73 25.77,-1 38.23,11.46 a 1,1 0 0 1 0,1.36 1,1 0 0 1 -0.68,0.3 z"
       style="fill:#407bff"
       id="path110" />
    <path
       d="m 220,410.31 a 0.84,0.84 0 0 1 -0.27,0 c -23,-6.81 -39.91,-22.27 -40.07,-22.43 a 1,1 0 0 1 1.3,-1.42 c 0.17,0.16 16.77,15.32 39.32,22 a 1,1 0 0 1 -0.28,1.89 z"
       style="fill:#407bff"
       id="path111" />
    <path
       d="m 220.46,409.72 a 1,1 0 0 1 -0.38,-0.08 255.59,255.59 0 0 1 -39.84,-22.25 1,1 0 1 1 1.11,-1.57 253.23,253.23 0 0 0 39.49,22.05 1,1 0 0 1 -0.38,1.85 z"
       style="fill:#407bff"
       id="path112" />
    <path
       d="m 221.31,408.53 a 0.91,0.91 0 0 1 -0.45,-0.11 c -19.67,-10.58 -40.29,-20.85 -40.49,-20.95 a 1,1 0 0 1 0.85,-1.73 c 0.21,0.1 20.86,10.39 40.55,21 a 1,1 0 0 1 -0.46,1.81 z"
       style="fill:#407bff"
       id="path113" />
    <path
       d="m 222,407.47 a 0.92,0.92 0 0 1 -0.59,-0.2 c -17.86,-14 -40.31,-20.5 -40.54,-20.56 a 1,1 0 0 1 0.53,-1.86 c 0.23,0.07 23,6.65 41.2,20.9 a 1,1 0 0 1 0.16,1.35 0.94,0.94 0 0 1 -0.76,0.37 z"
       style="fill:#407bff"
       id="path114" />
    <path
       d="m 223.84,403.59 a 1,1 0 0 1 -0.61,-0.21 c -16.36,-13.44 -42,-16.61 -42.22,-16.64 a 1,1 0 0 1 0.23,-1.92 c 0.26,0 26.41,3.27 43.22,17.07 a 1,1 0 0 1 0.13,1.35 1,1 0 0 1 -0.75,0.35 z"
       style="fill:#407bff"
       id="path115" />
    <path
       d="m 193.69,417 a 1,1 0 0 1 -0.56,-1.74 c 18.23,-13.19 28.64,-31.49 28.74,-31.67 a 1,1 0 1 1 1.68,0.95 c -0.1,0.18 -10.72,18.85 -29.29,32.28 a 1,1 0 0 1 -0.57,0.18 z"
       style="fill:#407bff"
       id="path116" />
    <g
       style="opacity:0.3"
       id="g133">
      <path
         d="m 212,412.2 a 51,51 0 0 1 -32.91,-12.48 1,1 0 0 1 1.28,-1.44 c 8,7.14 22.28,13.9 38.21,11.5 a 1,1 0 1 1 0.29,1.91 46.26,46.26 0 0 1 -6.87,0.51 z"
         id="path117" />
      <path
         d="m 209.48,415.06 c -11.79,0 -21.86,-4.64 -30.65,-14.1 a 1,1 0 0 1 0,-1.36 1,1 0 0 1 1.37,0 c 9.73,10.48 21.1,14.77 34.75,13.15 a 1,1 0 1 1 0.23,1.91 47.29,47.29 0 0 1 -5.7,0.4 z"
         id="path118" />
      <path
         d="m 192.06,416.22 a 1,1 0 0 1 -1,-0.9 c -0.84,-11.28 3.05,-29.24 13.61,-43.93 a 1,1 0 0 1 1.57,1.12 C 196,386.82 192.21,404.25 193,415.18 a 1,1 0 0 1 -0.89,1 z"
         id="path119" />
      <path
         d="m 182.47,407.27 a 1,1 0 0 1 -0.52,-0.15 1,1 0 0 1 -0.3,-1.33 c 3.36,-5.31 15.84,-23.12 35.4,-29.37 a 1,1 0 0 1 1.21,0.62 1,1 0 0 1 -0.62,1.21 c -18.94,6.06 -31.09,23.4 -34.36,28.57 a 1,1 0 0 1 -0.81,0.45 z"
         id="path120" />
      <path
         d="m 182.47,407.27 a 0.92,0.92 0 0 1 -0.36,-0.07 1,1 0 0 1 -0.54,-1.25 55.26,55.26 0 0 1 33,-31.36 1,1 0 0 1 0.64,1.82 53.33,53.33 0 0 0 -31.88,30.26 1,1 0 0 1 -0.86,0.6 z"
         id="path121" />
      <path
         d="m 189.21,414.54 a 1,1 0 0 1 -1,-0.86 c -2.42,-20.84 4.42,-32.76 12.18,-42.53 a 1,1 0 0 1 1.35,-0.16 1,1 0 0 1 0.16,1.36 c -7.5,9.45 -14.11,21 -11.77,41.11 a 1,1 0 0 1 -0.85,1.07 z"
         id="path122" />
      <path
         d="m 186.53,412.36 a 1,1 0 0 1 -0.93,-0.7 c -3,-11.05 -0.77,-28.33 11.47,-40.18 a 1,1 0 0 1 1.36,0 1,1 0 0 1 0,1.37 c -11.15,10.79 -13.95,27.42 -10.95,38.27 a 1,1 0 0 1 -0.67,1.19 z"
         id="path123" />
      <path
         d="m 225,398.86 a 1,1 0 0 1 -0.56,-0.18 C 210.14,388.39 192.7,384.6 181.77,385.42 a 1,1 0 0 1 -0.14,-1.93 c 11.28,-0.83 29.24,3.05 43.94,13.62 a 1,1 0 0 1 -0.57,1.75 z"
         id="path124" />
      <path
         d="m 225.2,396.19 a 0.88,0.88 0 0 1 -0.39,-0.08 c -12.82,-5.69 -32.22,-6.44 -45.12,-1.76 a 1,1 0 1 1 -0.66,-1.81 c 13.32,-4.84 33.33,-4.06 46.56,1.81 a 1,1 0 0 1 0.49,1.27 1,1 0 0 1 -0.88,0.57 z"
         id="path125" />
      <path
         d="m 225.16,393.49 a 1,1 0 0 1 -0.71,-0.31 c -9.51,-10.34 -21.83,-14 -40,-11.91 a 1,1 0 1 1 -0.23,-1.91 c 18.56,-2.16 31.78,1.82 41.61,12.52 a 1,1 0 0 1 -0.71,1.61 z"
         id="path126" />
      <path
         d="m 224.44,389.57 a 1,1 0 0 1 -0.68,-0.29 c -11.89,-11.86 -28.66,-13.57 -36.25,-11 a 1,1 0 0 1 -0.62,-1.83 c 8.05,-2.73 25.77,-1 38.23,11.46 a 1,1 0 0 1 0,1.36 1,1 0 0 1 -0.68,0.3 z"
         id="path127" />
      <path
         d="m 220,410.31 a 0.84,0.84 0 0 1 -0.27,0 c -23,-6.81 -39.91,-22.27 -40.07,-22.43 a 1,1 0 0 1 1.3,-1.42 c 0.17,0.16 16.77,15.32 39.32,22 a 1,1 0 0 1 -0.28,1.89 z"
         id="path128" />
      <path
         d="m 220.46,409.72 a 1,1 0 0 1 -0.38,-0.08 255.59,255.59 0 0 1 -39.84,-22.25 1,1 0 1 1 1.11,-1.57 253.23,253.23 0 0 0 39.49,22.05 1,1 0 0 1 -0.38,1.85 z"
         id="path129" />
      <path
         d="m 221.31,408.53 a 0.91,0.91 0 0 1 -0.45,-0.11 c -19.67,-10.58 -40.29,-20.85 -40.49,-20.95 a 1,1 0 0 1 0.85,-1.73 c 0.21,0.1 20.86,10.39 40.55,21 a 1,1 0 0 1 -0.46,1.81 z"
         id="path130" />
      <path
         d="m 222,407.47 a 0.92,0.92 0 0 1 -0.59,-0.2 c -17.86,-14 -40.31,-20.5 -40.54,-20.56 a 1,1 0 0 1 0.53,-1.86 c 0.23,0.07 23,6.65 41.2,20.9 a 1,1 0 0 1 0.16,1.35 0.94,0.94 0 0 1 -0.76,0.37 z"
         id="path131" />
      <path
         d="m 223.84,403.59 a 1,1 0 0 1 -0.61,-0.21 c -16.36,-13.44 -42,-16.61 -42.22,-16.64 a 1,1 0 0 1 0.23,-1.92 c 0.26,0 26.41,3.27 43.22,17.07 a 1,1 0 0 1 0.13,1.35 1,1 0 0 1 -0.75,0.35 z"
         id="path132" />
      <path
         d="m 193.69,417 a 1,1 0 0 1 -0.56,-1.74 c 18.23,-13.19 28.64,-31.49 28.74,-31.67 a 1,1 0 1 1 1.68,0.95 c -0.1,0.18 -10.72,18.85 -29.29,32.28 a 1,1 0 0 1 -0.57,0.18 z"
         id="path133" />
    </g>
  </g>
</svg>
