<?xml version="1.0" encoding="UTF-8" standalone="no"?>
<svg
   viewBox="0 0 220.68623 191.81621"
   version="1.1"
   id="svg2"
   sodipodi:docname="svg-hub-021.svg"
   width="220.68623"
   height="191.81621"
   inkscape:version="1.4 (e7c3feb100, 2024-10-09)"
   xmlns:inkscape="http://www.inkscape.org/namespaces/inkscape"
   xmlns:sodipodi="http://sodipodi.sourceforge.net/DTD/sodipodi-0.dtd"
   xmlns="http://www.w3.org/2000/svg"
   xmlns:svg="http://www.w3.org/2000/svg">
  <defs
     id="defs2" />
  <sodipodi:namedview
     id="namedview2"
     pagecolor="#ffffff"
     bordercolor="#000000"
     borderopacity="0.25"
     inkscape:showpageshadow="2"
     inkscape:pageopacity="0.0"
     inkscape:pagecheckerboard="0"
     inkscape:deskcolor="#d1d1d1"
     inkscape:zoom="2.47"
     inkscape:cx="110.52632"
     inkscape:cy="96.558704"
     inkscape:window-width="1920"
     inkscape:window-height="952"
     inkscape:window-x="0"
     inkscape:window-y="0"
     inkscape:window-maximized="1"
     inkscape:current-layer="svg2" />
  <g
     id="g2"
     transform="rotate(179.12965,130.26868,123.04681)">
    <path
       fill="#77CBB9"
       d="m 224.49,197.82 c -25.8,-11.64 -51.65,-23.18 -77.4,-34.92 -13.9,-6.34 -32.02,-15.07 -39.07,-29.66 4.38,0.79 8.82,1.3 13.26,1.55 12.26,0.69 25.01,-2.38 29.18,-15.31 3.41,-10.56 -0.88,-22.85 -10.74,-28.23 -10.49,-5.73 -24.41,-3.62 -32.96,4.63 -7,6.75 -10.2,16.72 -9.65,26.36 -3.68,-1.19 -6.84,-2.41 -9.08,-3.44 C 64.04,107.74 46.39,84.02 49.05,56.81 c 0.5,-5.12 -7.5,-5.09 -8,0 -2.76,28.22 14.85,54.36 39.32,67.11 5.86,3.05 12.03,5.43 18.37,7.19 3.59,11.33 12.19,20.06 21.86,26.63 13.67,9.3 29.6,15.28 44.59,22.05 l 55.26,24.93 c 4.66,2.1 8.73,-4.79 4.04,-6.91 z M 105.06,121.5 c -0.46,-10.87 5.27,-22.11 16.42,-24.86 9.83,-2.43 20.82,2.51 22.04,13.32 2.24,19.81 -20.27,18.95 -38.15,14.61 -0.15,-1 -0.26,-2.02 -0.3,-3.07 z"
       id="path1"
       style="fill:#5f6fc2;fill-opacity:1" />
    <path
       fill="#77CBB9"
       d="m 258.06,206.7 a 805.18,805.18 0 0 1 -47.48,-48.18 c -3.47,-3.82 -9.11,1.85 -5.66,5.66 a 806.35,806.35 0 0 0 42.69,43.65 c -21.36,7.36 -41.45,17.93 -59.56,31.5 -4.07,3.05 -0.09,10 4.04,6.91 19.42,-14.55 41.03,-25.67 64.21,-32.86 2.77,-0.86 4.04,-4.56 1.77,-6.69 z"
       id="path2"
       style="fill:#5f6fc2;fill-opacity:1" />
  </g>
</svg>
