<?xml version="1.0" encoding="UTF-8" standalone="no"?>
<svg
   class="ionicon"
   viewBox="0 0 512 512"
   version="1.1"
   id="svg2"
   sodipodi:docname="create-outline.svg"
   inkscape:version="1.4 (e7c3feb100, 2024-10-09)"
   xmlns:inkscape="http://www.inkscape.org/namespaces/inkscape"
   xmlns:sodipodi="http://sodipodi.sourceforge.net/DTD/sodipodi-0.dtd"
   xmlns="http://www.w3.org/2000/svg"
   xmlns:svg="http://www.w3.org/2000/svg">
  <defs
     id="defs2" />
  <sodipodi:namedview
     id="namedview2"
     pagecolor="#ffffff"
     bordercolor="#000000"
     borderopacity="0.25"
     inkscape:showpageshadow="2"
     inkscape:pageopacity="0.0"
     inkscape:pagecheckerboard="0"
     inkscape:deskcolor="#d1d1d1"
     inkscape:zoom="1.4472656"
     inkscape:cx="255.65452"
     inkscape:cy="256"
     inkscape:window-width="1920"
     inkscape:window-height="952"
     inkscape:window-x="0"
     inkscape:window-y="0"
     inkscape:window-maximized="1"
     inkscape:current-layer="svg2" />
  <path
     d="M384 224v184a40 40 0 01-40 40H104a40 40 0 01-40-40V168a40 40 0 0140-40h167.48"
     fill="none"
     stroke="currentColor"
     stroke-linecap="round"
     stroke-linejoin="round"
     stroke-width="32"
     id="path1"
     style="stroke:#ffffff;stroke-opacity:1" />
  <path
     d="M459.94 53.25a16.06 16.06 0 00-23.22-.56L424.35 65a8 8 0 000 11.31l11.34 11.32a8 8 0 0011.34 0l12.06-12c6.1-6.09 6.67-16.01.85-22.38zM399.34 90L218.82 270.2a9 9 0 00-2.31 3.93L208.16 299a3.91 3.91 0 004.86 4.86l24.85-8.35a9 9 0 003.93-2.31L422 112.66a9 9 0 000-12.66l-9.95-10a9 9 0 00-12.71 0z"
     id="path2"
     style="fill:#ffffff;fill-opacity:1" />
</svg>
