<?xml version="1.0" encoding="UTF-8" standalone="no"?>
<svg
   viewBox="0 0 1013.9493 503"
   role="img"
   artist="Katerina Limpitsouni"
   source="https://undraw.co/"
   version="1.1"
   id="svg45"
   xmlns:xlink="http://www.w3.org/1999/xlink"
   xmlns="http://www.w3.org/2000/svg"
   xmlns:svg="http://www.w3.org/2000/svg">
  <defs
     id="defs45">
    <linearGradient
       id="linearGradient2">
      <stop
         style="stop-color:#f4d77d;stop-opacity:0.75342464;"
         offset="0"
         id="stop2" />
      <stop
         style="stop-color:#ffffff;stop-opacity:0;"
         offset="0.9999997"
         id="stop3" />
    </linearGradient>
    <radialGradient
       xlink:href="#linearGradient2"
       id="radialGradient3"
       cx="334.78757"
       cy="92.543953"
       fx="334.78757"
       fy="92.543953"
       r="209.5621"
       gradientUnits="userSpaceOnUse"
       gradientTransform="matrix(2.1893742,0,0,1.5737826,-398.1877,-53.100124)" />
  </defs>
  <title
     id="title1">moonlight</title>
  <path
     d="M 506.97464,0 C 228.30164,0 2.15064,224.83411 -3e-5,503 H 1013.9492 C 1011.7986,224.83411 785.64771,0 506.97464,0 Z"
     fill="#2f2e41"
     id="path1"
     style="fill:#5eade3;fill-opacity:1" />
  <rect
     x="211.78757"
     y="288.54395"
     width="2"
     height="1"
     fill="#f2f2f2"
     id="rect8" />
  <rect
     x="414.78757"
     y="249.54395"
     width="2"
     height="1"
     fill="#f2f2f2"
     id="rect10" />
  <rect
     x="225.08928"
     y="363.68008"
     width="3.5190699"
     height="139.0033"
     fill="#3f3d56"
     id="rect13"
     style="fill:#865b43;fill-opacity:1" />
  <path
     d="m 261.08539,339.39444 c 0.224,48.606 -33.97287,88.16737 -33.97287,88.16737 0,0 -34.56009,-39.24449 -34.78411,-87.85048 -0.22402,-48.60599 33.97287,-88.16733 33.97287,-88.16733 0,0 34.56009,39.24445 34.78411,87.85044 z"
     fill="#3f3d56"
     id="path13"
     style="fill:#19a139;fill-opacity:1" />
  <rect
     x="180.60974"
     y="322.47214"
     width="4.5623102"
     height="180.21124"
     fill="#3f3d56"
     id="rect14"
     style="fill:#865b43;fill-opacity:1" />
  <path
     d="m 227.27699,303.438 c 0.29043,63.01538 -44.04422,114.30486 -44.04422,114.30486 0,0 -44.80554,-50.87864 -45.096,-113.894 -0.29046,-63.01536 44.04426,-114.30486 44.04426,-114.30486 0,0 44.80553,50.87859 45.09596,113.894 z"
     fill="#3f3d56"
     id="path14"
     style="fill:#19a139;fill-opacity:1" />
  <rect
     x="712.08929"
     y="363.68008"
     width="3.5190699"
     height="139.0033"
     fill="#6c63ff"
     id="rect15"
     style="fill:#865b43;fill-opacity:1" />
  <path
     d="m 748.08539,381.39444 c 0.224,48.606 -33.97287,88.16737 -33.97287,88.16737 0,0 -34.56009,-39.24449 -34.78411,-87.85048 -0.22402,-48.60599 33.97287,-88.16733 33.97287,-88.16733 0,0 34.56009,39.24445 34.78411,87.85044 z"
     fill="#3f3d56"
     id="path15"
     style="fill:#19a139;fill-opacity:1" />
  <rect
     x="132.40761"
     y="363.68008"
     width="3.5190699"
     height="139.0033"
     fill="#3f3d56"
     id="rect16"
     style="fill:#865b43;fill-opacity:1" />
  <path
     d="m 168.54564,372.39439 c 0.224,48.606 -33.97287,88.16737 -33.97287,88.16737 0,0 -34.56009,-39.24449 -34.784115,-87.85048 -0.22402,-48.60599 33.972875,-88.16733 33.972875,-88.16733 0,0 34.56009,39.24445 34.78411,87.85044 z"
     fill="#3f3d56"
     id="path16"
     style="fill:#19a139;fill-opacity:1" />
  <rect
     x="451.08929"
     y="363.68008"
     width="3.5190699"
     height="139.0033"
     fill="#3f3d56"
     id="rect17"
     style="fill:#865b43;fill-opacity:1" />
  <path
     d="m 487.08539,339.39444 c 0.224,48.606 -33.97287,88.16737 -33.97287,88.16737 0,0 -34.56009,-39.24449 -34.78411,-87.85048 -0.22402,-48.60599 33.97287,-88.16733 33.97287,-88.16733 0,0 34.56009,39.24445 34.78411,87.85044 z"
     fill="#3f3d56"
     id="path17"
     style="fill:#19a139;fill-opacity:1" />
  <rect
     x="406.60974"
     y="322.47214"
     width="4.5623102"
     height="180.21124"
     fill="#3f3d56"
     id="rect18"
     style="fill:#865b43;fill-opacity:1" />
  <path
     d="m 453.27699,303.438 c 0.29043,63.01538 -44.04422,114.30486 -44.04422,114.30486 0,0 -44.80554,-50.87864 -45.096,-113.894 -0.29046,-63.01536 44.04426,-114.30486 44.04426,-114.30486 0,0 44.80553,50.87859 45.09596,113.894 z"
     fill="#3f3d56"
     id="path18"
     style="fill:#19a139;fill-opacity:1" />
  <rect
     x="367.08929"
     y="363.68008"
     width="3.5190699"
     height="139.0033"
     fill="#3f3d56"
     id="rect19"
     style="fill:#865b43;fill-opacity:1" />
  <path
     d="m 403.08539,339.39444 c 0.224,48.606 -33.97287,88.16737 -33.97287,88.16737 0,0 -34.56009,-39.24449 -34.78411,-87.85048 -0.22402,-48.60599 33.97287,-88.16733 33.97287,-88.16733 0,0 34.56009,39.24445 34.78411,87.85044 z"
     fill="#3f3d56"
     id="path19"
     style="fill:#19a139;fill-opacity:1" />
  <path
     d="m 738.36202,428.41334 -58.80359,-54.06855 c -0.15881,2.42975 -0.24146,4.88556 -0.2301,7.36652 0.22412,48.60608 34.78418,87.85046 34.78418,87.85046 a 162.81545,162.81545 0 0 0 24.24951,-41.14843 z"
     fill="#6c63ff"
     id="path20"
     style="fill:#19a139;fill-opacity:1" />
  <path
     d="m 300.64374,490.2839 c 2.01475,7.44773 8.91572,12.0603 8.91572,12.0603 0,0 3.63442,-7.46259 1.61967,-14.91032 -2.01475,-7.44773 -8.91572,-12.06029 -8.91572,-12.06029 0,0 -3.63442,7.46258 -1.61967,14.91031 z"
     fill="#3f3d56"
     id="path21"
     style="fill:#40b910;fill-opacity:1" />
  <path
     d="m 303.60427,488.68331 c 5.5285,5.38177 6.20377,13.65481 6.20377,13.65481 0,0 -8.28821,-0.45254 -13.81671,-5.83431 -5.5285,-5.38177 -6.20377,-13.65482 -6.20377,-13.65482 0,0 8.28821,0.45254 13.81671,5.83432 z"
     fill="#3f3d56"
     id="path22"
     style="fill:#05ca00;fill-opacity:1" />
  <path
     d="m 584.64374,490.2839 c 2.01475,7.44773 8.91572,12.0603 8.91572,12.0603 0,0 3.63442,-7.46259 1.61967,-14.91032 -2.01475,-7.44773 -8.91572,-12.06029 -8.91572,-12.06029 0,0 -3.63442,7.46258 -1.61967,14.91031 z"
     fill="#6c63ff"
     id="path23"
     style="fill:#19a139;fill-opacity:1" />
  <path
     d="m 587.60427,488.68331 c 5.5285,5.38177 6.20377,13.65481 6.20377,13.65481 0,0 -8.28821,-0.45254 -13.81671,-5.83431 -5.5285,-5.38177 -6.20377,-13.65482 -6.20377,-13.65482 0,0 8.28821,0.45254 13.81671,5.83432 z"
     fill="#6c63ff"
     id="path24"
     style="fill:#05b100;fill-opacity:1" />
  <path
     d="m 76.64374,490.2839 c 2.01475,7.44773 8.91572,12.0603 8.91572,12.0603 0,0 3.63442,-7.46259 1.61967,-14.91032 -2.01475,-7.44773 -8.91572,-12.06029 -8.91572,-12.06029 0,0 -3.63442,7.46258 -1.61967,14.91031 z"
     fill="#3f3d56"
     id="path25"
     style="fill:#05ca00;fill-opacity:1" />
  <path
     d="m 79.60427,488.68331 c 5.5285,5.38177 6.20377,13.65481 6.20377,13.65481 0,0 -8.28821,-0.45254 -13.81671,-5.83431 -5.5285,-5.38177 -6.20377,-13.65482 -6.20377,-13.65482 0,0 8.28821,0.45254 13.81671,5.83432 z"
     fill="#3f3d56"
     id="path26"
     style="fill:#40b910;fill-opacity:1" />
  <path
     d="m 387.33278,220.70747 96.51026,145.66168 a 113.62605,113.62605 0 0 0 3.24237,-26.97473 c -0.10926,-23.702 -8.3833,-45.17511 -16.83319,-60.96 l -4.46466,1.1095 4.19915,-1.60193 A 155.07209,155.07209 0 0 0 452.30129,251.544 c 0,0 -2.4624,2.85 -6.05945,7.95465 C 433.56227,218.37042 408.18105,189.544 408.18105,189.544 a 197.509,197.509 0 0 0 -20.84827,31.16347 z"
     fill="#6c63ff"
     id="path27"
     style="fill:#19a139;fill-opacity:1" />
  <circle
     cx="334.78757"
     cy="92.543953"
     r="27"
     fill="#f2f2f2"
     id="circle45"
     style="fill:#fff748;fill-opacity:1" />
  <rect
     x="899.72864"
     y="371.29132"
     width="3.5190699"
     height="139.0033"
     fill="#3f3d56"
     id="rect17-7"
     style="fill:#865b43;fill-opacity:1" />
  <path
     d="m 935.72478,347.00566 c 0.224,48.606 -33.97287,88.16737 -33.97287,88.16737 0,0 -34.56009,-39.24449 -34.78411,-87.85048 -0.22402,-48.60599 33.97287,-88.16733 33.97287,-88.16733 0,0 34.56009,39.24445 34.78411,87.85044 z"
     fill="#3f3d56"
     id="path17-3"
     style="fill:#19a139;fill-opacity:1" />
  <path
     id="path2"
     style="fill:url(#radialGradient3);stroke:none;stroke-width:14.4874"
     d="M 487.08594,0 C 304.70372,0 102.50054,132.47411 28.888672,337.10352 a 458.80984,329.80521 0 0 0 305.898438,85.24609 458.80984,329.80521 0 0 0 458.81055,-329.804688 458.80984,329.80521 0 0 0 -0.2793,-4.19336 C 716.48483,34.349458 620.57684,0 506.97461,0 Z" />
</svg>
