<?xml version="1.0" encoding="UTF-8" standalone="no"?>
<svg
   width="80.70507"
   height="107.60636"
   viewBox="0 0 80.705071 107.60636"
   data-svgdocument=""
   id="_3tPmdtZQ0LGlljQGEkT-3"
   class="fl-svgdocument"
   x="0"
   y="0"
   version="1.1"
   sodipodi:docname="neodb.svg"
   inkscape:version="1.4 (e7c3feb1, 2024-10-09)"
   xmlns:inkscape="http://www.inkscape.org/namespaces/inkscape"
   xmlns:sodipodi="http://sodipodi.sourceforge.net/DTD/sodipodi-0.dtd"
   xmlns="http://www.w3.org/2000/svg"
   xmlns:svg="http://www.w3.org/2000/svg">
  <sodipodi:namedview
     id="namedview21"
     pagecolor="#ffffff"
     bordercolor="#666666"
     borderopacity="1.0"
     inkscape:pageshadow="2"
     inkscape:pageopacity="0.0"
     inkscape:pagecheckerboard="0"
     showgrid="false"
     units="px"
     fit-margin-top="0"
     fit-margin-left="0"
     fit-margin-right="0"
     fit-margin-bottom="0"
     inkscape:zoom="1.4707031"
     inkscape:cx="197.1846"
     inkscape:cy="49.29615"
     inkscape:window-width="1472"
     inkscape:window-height="814"
     inkscape:window-x="0"
     inkscape:window-y="38"
     inkscape:window-maximized="0"
     inkscape:current-layer="_3tPmdtZQ0LGlljQGEkT-3"
     inkscape:document-units="mm"
     inkscape:snap-global="false"
     inkscape:showpageshadow="2"
     inkscape:deskcolor="#d1d1d1" />
  <defs
     id="_SabXoCmWUJmxvMwSINRGH"
     transform="matrix(1.1728515134752755, 0, 0, 1.1728515134752755, -34.46172819025348, -40.976997984526726)">
    <rect
       x="86.353256"
       y="25.158035"
       width="217.58301"
       height="60.515274"
       id="rect4965" />
  </defs>
  <g
     id="_WTrHMt3eZfxcQKrYJirRK"
     transform="matrix(0.95294163,0,0,0.95294163,-45.741197,-190.14988)">
    <path
       id="_1MYZsbAYvxe5D-50H3pho"
       fill="#000000"
       transform="matrix(1.2602785,0,0,1.2602785,27.519653,192.79657)"
       data-type="polygon"
       d="M 82.1,74 75,81.1 v 0 L 82.1,74 74,65.9 v 0 z" />
    <path
       id="_oL3QJlwkbW1Nmdh3qAlDC"
       fill="#000000"
       transform="matrix(1.2602785,0,0,1.2602785,27.45702,193.17499)"
       data-type="rect"
       data-x="64.5"
       data-y="51.5"
       data-width="0"
       data-height="9.8"
       d="M 64.5,51.5" />
    <path
       id="_sK1htog-8Op55rgRI5hDg"
       d="m 61.1,52.9 v 0 0 l -4.9,4.9 c 2.5,1.2 4.3,3.8 4.3,6.9 0,4.2 -3.4,7.6 -7.6,7.6 -3,0 -5.6,-1.8 -6.9,-4.3 L 40.1,73.9 40,74 61,95 69.1,86.9 v 0 c -3.2,0 -5.9,-2.6 -5.9,-5.9 0,-3.3 2.6,-5.9 5.9,-5.9 3.2,0 5.9,2.6 5.9,5.9 l 7.1,-7.1 -8.1,-8 v 0 l -0.6,-0.6 c 0.1,0 0.3,0 0.4,0 3.2,0 5.9,-2.6 5.9,-5.9 0,-1.5 -0.6,-2.8 -1.5,-3.9 -1,-0.9 -2.4,-1.5 -3.9,-1.5 -3.2,0 -5.9,2.6 -5.9,5.9 0,0.1 0,0.3 0,0.4 L 68,59.9 v 0 z"
       fill="#083b66"
       transform="matrix(1.2602785,0,0,1.2602785,27.51993,192.73364)"
       style="fill:#ffb380" />
    <path
       id="_OMWHsyuaoclMfPE9tvM7V"
       d="m 46.5,49.5 c -4.2,0 -7.6,-3.4 -7.6,-7.6 0,-3 1.7,-5.6 4.2,-6.8 l -5.9,-5.9 v 0 l -21,21 22.2,22.2 9.5,-9.5 c -0.3,0.6 -0.4,1.3 -0.4,2 0,2.9 2.4,5.3 5.3,5.3 2.9,0 5.3,-2.4 5.3,-5.3 0,-2.9 -2.4,-5.3 -5.3,-5.3 -0.7,0 -1.4,0.1 -2,0.4 l 8.6,-8.6 -6,-6 c -1.3,2.3 -3.9,4.1 -6.9,4.1 z"
       fill="#8dcaff"
       transform="matrix(1.2602785,0,0,1.2602785,27.583487,192.79709)" />
    <path
       id="_jAk8zpl6O80_21e1JT4hk"
       d="m 83.3,27.4 -8.7,-8.7 c 0.1,0 0.3,0 0.4,0 3.2,0 5.9,-2.6 5.9,-5.9 C 80.9,9.6 78.3,7 75,7 c -3.2,0 -5.9,2.6 -5.9,5.9 0,0.1 0,0.3 0,0.4 L 61,5.2 l -21,21 -0.7,0.8 -0.4,0.4 9.5,9.5 c -0.6,-0.2 -1.2,-0.3 -1.8,-0.3 -2.9,0 -5.3,2.4 -5.3,5.3 0,2.9 2.4,5.3 5.3,5.3 2.9,0 5.3,-2.4 5.3,-5.3 0,-0.5 -0.1,-0.9 -0.2,-1.4 0,-0.2 -0.1,-0.3 -0.1,-0.5 l 0.5,0.5 9.2,9.2 0.4,-0.4 0.8,-0.8 6.8,-6.8 c 0,0 0,0 0,0 -3.2,0 -5.9,-2.6 -5.9,-5.9 0,-3.3 2.6,-5.9 5.9,-5.9 3.2,0 5.9,2.6 5.9,5.9 0,0 0,0 0,0 z"
       fill="#c0d9b4"
       transform="matrix(1.2602785,0,0,1.2602785,27.709267,192.98645)" />
    <path
       id="_GDSYpBtYoW2GJpRZoPCot"
       fill="#000000"
       transform="matrix(1.2602785,0,0,1.2602785,27.456932,192.67065)"
       data-type="rect"
       data-x="61.1"
       data-y="52.9"
       data-width="0"
       data-height="0"
       d="M 61.1,52.9" />
    <path
       id="_NldltLD5fZQlQrgFsakaC"
       fill="#000000"
       transform="matrix(1.2602785,0,0,1.2602785,27.456932,192.67065)"
       data-type="rect"
       data-x="61.1"
       data-y="52.9"
       data-width="0"
       data-height="0"
       d="M 61.1,52.9" />
    <path
       id="_TbX_b0jxU8J0Cb3YWVDy6"
       d="m 51.6,40.5 h 0.3 L 51.5,40 c 0,0.1 0,0.3 0.1,0.5 z"
       fill="#000000"
       transform="matrix(1.2602785,0,0,1.2602785,27.708767,192.98587)" />
  </g>
</svg>
