<?xml version="1.0" encoding="UTF-8" standalone="no"?>
<svg
   width="60.896072"
   height="37.919968"
   viewBox="0 0 60.896072 37.919968"
   version="1.1"
   xml:space="preserve"
   style="clip-rule:evenodd;fill-rule:evenodd;stroke-linejoin:round;stroke-miterlimit:2"
   id="svg1"
   sodipodi:docname="vernissage_V_white.svg"
   inkscape:version="1.4 (e7c3feb1, 2024-10-09)"
   xmlns:inkscape="http://www.inkscape.org/namespaces/inkscape"
   xmlns:sodipodi="http://sodipodi.sourceforge.net/DTD/sodipodi-0.dtd"
   xmlns="http://www.w3.org/2000/svg"
   xmlns:svg="http://www.w3.org/2000/svg"><defs
   id="defs1" /><sodipodi:namedview
   id="namedview1"
   pagecolor="#ffffff"
   bordercolor="#000000"
   borderopacity="0.25"
   inkscape:showpageshadow="2"
   inkscape:pageopacity="0.0"
   inkscape:pagecheckerboard="0"
   inkscape:deskcolor="#d1d1d1"
   inkscape:zoom="1.0664472"
   inkscape:cx="-84.392365"
   inkscape:cy="123.77547"
   inkscape:window-width="1472"
   inkscape:window-height="817"
   inkscape:window-x="0"
   inkscape:window-y="38"
   inkscape:window-maximized="1"
   inkscape:current-layer="svg1" />
    <g
   transform="matrix(0.331471,0,0,0.241667,-29.425466,-28.872681)"
   id="g1">
        <path
   d="m 117.686,276.383 c -4.441,0 -7.868,-1.589 -10.282,-4.766 -2.413,-3.178 -3.62,-6.356 -3.62,-9.534 0,-2.649 0.628,-4.767 1.883,-6.356 1.255,-1.589 2.606,-2.384 4.054,-2.384 0.773,0 1.448,0.199 2.028,0.596 2.799,1.987 5.768,4.105 8.905,6.356 3.138,2.251 6.879,3.377 11.223,3.377 2.221,0 4.537,-0.398 6.951,-1.192 4.923,-4.899 9.533,-10.759 13.829,-17.578 4.296,-6.819 8.037,-13.804 11.223,-20.954 3.186,-7.151 5.599,-13.507 7.24,-19.068 2.993,-10.328 4.489,-19.663 4.489,-28.006 0,-7.812 -1.182,-14.333 -3.547,-19.564 -2.366,-5.23 -5.527,-9.169 -9.485,-11.818 -3.958,-2.648 -8.351,-3.972 -13.178,-3.972 -5.889,0 -11.392,1.126 -16.508,3.377 -0.579,0.529 -1.159,1.092 -1.738,1.688 -0.579,0.596 -1.11,1.291 -1.593,2.085 -1.158,1.987 -1.641,3.774 -1.448,5.363 1.062,0.133 1.907,0.795 2.534,1.986 0.628,1.192 0.942,2.516 0.942,3.973 0,1.721 -0.194,3.111 -0.58,4.171 -0.386,1.059 -0.724,1.986 -1.013,2.78 -0.483,1.06 -0.724,2.384 -0.724,3.973 0,0.662 0.096,1.291 0.289,1.887 0.193,0.596 0.579,1.026 1.159,1.291 -0.193,0.529 -0.628,0.794 -1.304,0.794 -1.062,0 -2.075,-0.728 -3.041,-2.185 -0.965,-1.456 -1.737,-3.177 -2.317,-5.164 -0.579,-1.986 -0.868,-3.773 -0.868,-5.362 0,-2.251 0.434,-4.138 1.303,-5.661 0.869,-1.523 1.786,-2.35 2.751,-2.483 v -0.794 c 0,-1.722 0.386,-3.443 1.159,-5.165 0.096,-0.264 0.338,-0.662 0.724,-1.191 -5.31,2.913 -9.944,6.852 -13.902,11.818 -3.958,4.965 -7.24,10.295 -9.847,15.989 -0.869,1.986 -1.689,4.005 -2.462,6.058 -0.772,2.052 -1.399,4.138 -1.882,6.256 -0.193,0.795 -0.338,1.655 -0.435,2.582 -0.096,0.927 -0.144,1.854 -0.144,2.781 0,1.986 0.241,3.873 0.724,5.661 0.482,1.787 1.255,3.211 2.317,4.27 1.158,-1.192 2.51,-1.788 4.054,-1.788 0.966,0 1.786,0.199 2.462,0.596 1.352,0.662 2.389,1.457 3.113,2.384 0.724,0.927 1.328,1.853 1.81,2.78 0.483,0.662 1.135,1.291 1.955,1.887 0.821,0.596 1.617,0.894 2.39,0.894 1.062,0 1.834,-0.53 2.317,-1.589 0.289,0.397 0.434,0.861 0.434,1.39 0,0.398 -0.145,0.994 -0.434,1.788 -0.676,1.854 -2.052,3.277 -4.127,4.27 -2.076,0.993 -4.127,1.49 -6.155,1.49 -2.992,0 -5.358,-1.258 -7.095,-3.774 -1.738,-2.516 -2.414,-4.965 -2.028,-7.349 0.193,-0.794 0.386,-1.324 0.58,-1.589 -0.869,-0.794 -1.593,-1.887 -2.173,-3.277 -0.579,-1.39 -1.062,-2.814 -1.448,-4.27 -0.193,1.721 -0.362,3.442 -0.507,5.164 -0.144,1.721 -0.217,3.376 -0.217,4.965 0,6.224 0.773,11.454 2.317,15.691 1.738,4.635 4.248,8.011 7.53,10.13 3.283,2.119 6.71,3.178 10.282,3.178 5.889,0 11.247,-2.119 16.073,-6.356 1.062,-1.059 2.148,-2.714 3.259,-4.965 1.11,-2.251 1.52,-4.635 1.231,-7.151 -0.58,0.397 -1.255,0.596 -2.028,0.596 -1.062,0 -2.124,-0.496 -3.186,-1.49 -1.061,-0.993 -1.834,-2.217 -2.316,-3.674 -0.676,-1.854 -1.038,-3.542 -1.087,-5.065 -0.048,-1.523 -0.072,-2.814 -0.072,-3.873 0,-1.589 -0.386,-3.31 -1.158,-5.164 -0.773,-1.854 -1.835,-2.516 -3.186,-1.986 0.289,-1.192 0.82,-2.02 1.593,-2.483 0.772,-0.464 1.544,-0.695 2.317,-0.695 0.675,0 1.303,0.099 1.882,0.298 0.579,0.198 1.062,0.43 1.448,0.695 1.641,0.794 3.114,2.085 4.417,3.873 1.303,1.788 2.293,3.542 2.968,5.263 0.869,2.119 1.304,4.238 1.304,6.356 0,2.781 -0.628,4.9 -1.883,6.356 0.193,0.53 0.29,1.059 0.29,1.589 v 1.788 c 0,1.589 -0.29,3.31 -0.869,5.164 -0.386,1.192 -0.821,2.251 -1.303,3.178 0.289,-0.133 0.579,-0.199 0.869,-0.199 h 0.724 c 1.448,0.265 2.437,0.927 2.968,1.986 0.531,1.06 0.797,2.119 0.797,3.178 0,0.662 -0.097,1.391 -0.29,2.185 -0.097,0.53 -0.386,0.795 -0.869,0.795 -0.579,0 -0.917,-0.53 -1.013,-1.589 -0.097,-0.927 -0.531,-1.556 -1.304,-1.887 -0.772,-0.331 -1.641,-0.497 -2.606,-0.497 -0.386,0 -0.797,0.033 -1.231,0.099 -0.435,0.067 -0.893,0.166 -1.376,0.298 -0.096,0.133 -0.169,0.199 -0.217,0.199 h -0.217 c -4.827,4.237 -10.378,6.356 -16.653,6.356 -4.152,0 -8.11,-1.225 -11.875,-3.675 -3.765,-2.449 -6.661,-6.389 -8.688,-11.818 v 1.192 c 0,1.589 -0.193,2.913 -0.579,3.973 -0.966,3.178 -2.414,4.767 -4.345,4.767 -1.351,0 -2.413,-0.927 -3.186,-2.781 -0.386,-0.927 -0.482,-1.655 -0.289,-2.185 0.193,-0.53 0.483,-0.53 0.869,0 0.289,0.397 0.627,0.596 1.013,0.596 1.255,0 2.462,-1.126 3.621,-3.377 0.482,-0.794 0.893,-1.92 1.23,-3.376 0.338,-1.457 0.411,-2.847 0.218,-4.171 -0.869,-3.84 -1.304,-7.945 -1.304,-12.315 0,-5.031 0.58,-10.229 1.738,-15.591 1.159,-5.363 2.945,-10.627 5.358,-15.791 1.352,-3.045 2.92,-5.958 4.706,-8.739 1.786,-2.781 3.741,-5.429 5.865,-7.945 -0.386,0.132 -0.82,0.199 -1.303,0.199 h -1.448 c -2.221,-0.265 -4.103,-1.457 -5.648,-3.576 -0.386,0.265 -0.965,0.398 -1.738,0.398 -1.158,0 -2.389,-0.596 -3.692,-1.788 -1.303,-1.192 -2.341,-2.913 -3.114,-5.164 -0.386,-1.059 -0.699,-2.383 -0.941,-3.972 -0.241,-1.589 -0.362,-3.178 -0.362,-4.767 0,-2.384 0.266,-4.635 0.797,-6.753 0.531,-2.119 1.279,-3.642 2.244,-4.569 0.676,-0.662 1.231,-0.96 1.665,-0.893 0.435,0.066 0.7,0.165 0.797,0.297 -0.676,0.795 -1.014,1.788 -1.014,2.98 0,1.191 0.314,2.383 0.942,3.575 0.627,1.192 1.279,2.119 1.954,2.781 0.773,0.662 1.569,1.423 2.39,2.284 0.82,0.86 1.569,2.218 2.244,4.071 0.58,1.325 0.869,2.914 0.869,4.767 0,2.649 -0.627,4.635 -1.882,5.959 1.062,1.457 2.751,2.185 5.068,2.185 0.869,0 1.762,-0.133 2.679,-0.397 0.917,-0.265 1.762,-0.596 2.534,-0.994 3.379,-3.442 7.168,-6.455 11.368,-9.037 4.199,-2.582 8.712,-4.535 13.539,-5.859 -1.158,-0.662 -2.148,-1.622 -2.968,-2.88 -0.821,-1.258 -1.231,-2.681 -1.231,-4.27 0,-1.722 0.386,-2.88 1.158,-3.476 0.773,-0.596 1.448,-0.894 2.028,-0.894 h 0.144 -0.144 c -0.387,0.132 -0.58,0.861 -0.58,2.185 0,1.324 0.338,2.979 1.014,4.965 0.676,1.986 1.641,3.244 2.896,3.774 l 0.145,0.199 c 3.186,-0.795 6.565,-1.192 10.137,-1.192 5.985,0 11.488,1.357 16.508,4.072 5.02,2.714 9.026,6.819 12.019,12.314 2.993,5.495 4.489,12.546 4.489,21.153 0,3.708 -0.338,7.746 -1.014,12.116 -0.675,4.37 -1.737,9.07 -3.185,14.102 -1.545,5.297 -4.031,11.355 -7.458,18.174 -3.427,6.819 -7.434,13.672 -12.019,20.557 -4.586,6.886 -9.485,13.175 -14.698,18.869 4.247,-2.648 8.978,-6.389 14.191,-11.222 5.213,-4.833 11.054,-11.156 17.522,-18.968 6.082,-7.283 11.633,-15.162 16.653,-23.636 5.02,-8.474 9.533,-16.651 13.54,-24.53 4.006,-7.878 7.602,-14.664 10.788,-20.358 6.082,-10.858 11.609,-19.2 16.58,-25.026 4.972,-5.827 9.461,-9.865 13.468,-12.116 4.006,-2.251 7.554,-3.377 10.643,-3.377 1.641,0 3.089,0.199 4.344,0.596 2.221,0.53 4.007,1.854 5.358,3.972 1.352,2.119 2.028,4.569 2.028,7.349 0,1.854 -0.338,3.708 -1.014,5.562 l -2.027,-1.192 c 0.579,-1.589 0.869,-3.112 0.869,-4.568 0,-2.516 -0.7,-4.569 -2.1,-6.158 -1.4,-1.588 -3.21,-2.383 -5.431,-2.383 -2.799,0 -6.202,1.523 -10.209,4.568 -4.006,3.046 -8.64,8.044 -13.901,14.996 -5.262,6.952 -11.223,16.32 -17.884,28.105 -4.731,8.474 -10.33,17.909 -16.798,28.303 -6.468,10.395 -14.288,21.154 -23.459,32.276 -8.496,10.196 -16.026,17.843 -22.59,22.941 -6.565,5.098 -12.261,8.772 -17.088,11.023 -3.958,3.443 -7.892,6.224 -11.802,8.343 -3.909,2.118 -7.699,3.177 -11.367,3.177 z m -0.29,-2.78 c 2.896,0 5.744,-0.629 8.544,-1.887 2.8,-1.258 5.599,-2.946 8.399,-5.065 h -0.724 c -0.386,0.132 -0.772,0.199 -1.159,0.199 h -1.303 c -2.703,0 -5.141,-0.398 -7.313,-1.192 -2.172,-0.795 -3.885,-1.39 -5.14,-1.788 -0.869,-0.264 -1.666,-0.463 -2.39,-0.596 -0.724,-0.132 -1.376,-0.198 -1.955,-0.198 -2.606,0 -3.91,1.125 -3.91,3.376 0,1.589 0.7,3.178 2.1,4.767 1.4,1.589 3.017,2.384 4.851,2.384 z"
   style="fill:#000;fill-rule:nonzero"
   id="path1" />
    </g>
</svg>
