<?xml version="1.0" encoding="UTF-8" standalone="no"?>
<svg
   xml:space="preserve"
   width="13.741758in"
   height="13.741744in"
   version="1.1"
   style="clip-rule:evenodd;fill-rule:evenodd;image-rendering:optimizeQuality;shape-rendering:geometricPrecision;text-rendering:geometricPrecision"
   viewBox="0 0 13741.565 13741.55"
   id="svg2"
   sodipodi:docname="_logo.svg"
   inkscape:version="1.4 (e7c3feb1, 2024-10-09)"
   xmlns:inkscape="http://www.inkscape.org/namespaces/inkscape"
   xmlns:sodipodi="http://sodipodi.sourceforge.net/DTD/sodipodi-0.dtd"
   xmlns="http://www.w3.org/2000/svg"
   xmlns:svg="http://www.w3.org/2000/svg"><sodipodi:namedview
   id="namedview2"
   pagecolor="#ffffff"
   bordercolor="#000000"
   borderopacity="0.25"
   inkscape:showpageshadow="2"
   inkscape:pageopacity="0.0"
   inkscape:pagecheckerboard="0"
   inkscape:deskcolor="#d1d1d1"
   inkscape:document-units="in"
   inkscape:zoom="0.21397769"
   inkscape:cx="729.04797"
   inkscape:cy="504.72552"
   inkscape:window-width="1472"
   inkscape:window-height="815"
   inkscape:window-x="0"
   inkscape:window-y="38"
   inkscape:window-maximized="1"
   inkscape:current-layer="Layer_x0020_1" />
 <defs
   id="defs1">
  <style
   type="text/css"
   id="style1">
   <![CDATA[
    .fil0 {fill:#1977F3;fill-rule:nonzero}
    .fil1 {fill:#FEFEFE;fill-rule:nonzero}
   ]]>
  </style>
 <linearGradient
   id="paint0_linear_105_379"
   x1="154.166"
   y1="35.943298"
   x2="47.247501"
   y2="144.745"
   gradientUnits="userSpaceOnUse"><stop
     offset="0.0509862"
     stop-color="#FFB6E1"
     id="stop1"
     style="stop-color:#4169e1;stop-opacity:1;" /><stop
     offset="1"
     stop-color="#FBE3EA"
     id="stop2"
     style="stop-color:#829ceb;stop-opacity:1;" /></linearGradient></defs>
 <g
   id="Layer_x0020_1"
   inkscape:label="Layer 1"
   inkscape:groupmode="layer"
   transform="translate(-40.146789,-277.78513)">
  <metadata
   id="CorelCorpID_0Corel-Layer" />
  
  
 <g
   style="fill:none"
   id="g2"
   transform="matrix(72.93737,0,0,72.93737,40.146789,277.78513)"><path
     d="m 160.16399,128.23805 c -5.467,5.467 -14.332,5.467 -19.799,0 l -24.137,-24.138 c -5.468,-5.467 -5.468,-14.3312 0,-19.7985 l 24.137,-24.1374 c 5.467,-5.4674 14.332,-5.4674 19.799,0 l 24.138,24.1373 c 5.467,5.4674 5.467,14.3316 0,19.7986 z m -112.1271,0 c -5.4673,5.467 -14.3317,5.467 -19.799,0 l -24.13738,-24.138 c -5.46734,-5.467 -5.46735,-14.3312 -10e-6,-19.7985 l 24.13739,-24.1374 c 5.4673,-5.4674 14.3317,-5.4674 19.799,0 l 24.1374,24.1373 c 5.4673,5.4674 5.4673,14.3316 0,19.7986 z m 56.0641,56.063 c -5.468,5.468 -14.3321,5.468 -19.7995,0 l -24.1374,-24.137 c -5.4673,-5.467 -5.4673,-14.332 0,-19.799 l 24.1374,-24.137 c 5.4674,-5.468 14.3315,-5.468 19.7995,0 l 24.137,24.137 c 5.467,5.467 5.467,14.332 0,19.799 z m 0,-112.1268 c -5.468,5.4673 -14.3321,5.4674 -19.7995,0 l -24.1374,-24.1374 c -5.4673,-5.4673 -5.4673,-14.3316 0,-19.799 L 84.30149,4.10051 c 5.4674,-5.46734 14.3315,-5.46735 19.7995,-10e-6 l 24.137,24.13735 c 5.467,5.4674 5.467,14.3317 0,19.799 z"
     fill="url(#paint0_linear_105_379)"
     id="path1-3"
     style="fill:#4169e1;fill-opacity:1" /></g></g>
</svg>
