<svg width="260" height="150" viewBox="0 0 260 150" fill="none" xmlns="http://www.w3.org/2000/svg">
<path d="M160.407 74.8958C160.424 74.8602 160.448 74.8077 160.465 74.7755C160.465 74.9077 160.441 74.9229 160.407 74.8958ZM149.912 81.7101C143.556 94.339 138.462 102.166 132.72 102.166C129.238 102.166 126.709 99.0252 126.709 93.3919C126.709 88.5785 128.49 83.1739 132.116 77.1695C135.773 71.1126 140.576 66.9464 146.052 66.9464C150.447 66.9464 153.764 69.4895 155.177 70.794C153.862 73.6726 152.139 77.283 149.912 81.7101ZM71.1915 118.438C71.1915 127.6 70.1508 133.391 67.8155 137.214C65.2686 141.386 61.9958 143.328 57.5164 143.328C54.1759 143.328 51.3634 141.588 49.9926 138.671C47.8113 134.035 49.6017 127.951 54.78 122.396C58.4827 118.424 64.563 112.696 71.1915 106.588V118.438ZM104.135 22.9824C104.135 12.7695 107.797 6.67194 114.742 6.67194C120.556 6.67194 123.677 11.448 123.677 19.4482C123.677 28.0093 120.853 44.1927 104.135 64.9116V22.9824ZM252.647 70.2027C247.741 63.1377 244.902 59.9271 244.783 59.795C244.069 58.9902 243.018 58.5785 241.935 58.6971C240.864 58.814 239.916 59.4409 239.388 60.3829C239.309 60.5252 231.284 74.8433 225.513 83.5212C222.354 88.2736 219.371 92.7616 215.829 95.569C215.138 96.1145 214.422 96.6194 213.686 97.0904C214.497 94.8794 214.92 92.4024 214.92 89.6035C214.92 82.054 210.95 75.6599 206.154 68.6762C202.441 63.2665 199.972 60.1118 199.869 59.9797C199.172 59.0953 198.084 58.6294 196.953 58.7192C195.831 58.8191 194.835 59.4799 194.307 60.4761C194.208 60.6625 184.38 79.1755 176 93.5291C172.72 99.1455 170.916 101.494 168.234 101.494C167.437 101.494 166.723 101.206 166.274 100.708C165.872 100.255 165.64 99.4353 165.64 98.4543C165.64 91.2165 165.538 62.5905 165.538 62.5905C165.533 60.9522 164.34 59.5612 162.724 59.3071C161.089 59.0563 159.546 60.0119 159.04 61.5672C159.033 61.5892 158.735 62.4905 157.943 64.4355C155.359 62.4939 151.264 60.2762 146.052 60.2762C140.838 60.2762 136.196 62.1686 132.116 66.2535C129.087 69.2845 126.207 73.3659 122.479 80.3394C119.769 85.4052 116.334 91.8145 112.921 96.3653C110.369 99.7673 108.237 101.494 106.582 101.494C105.912 101.494 104.135 101.494 104.135 97.7427V75.1754C113.75 64.4728 119.822 54.6496 123.745 46.1123C129.048 34.5745 130.591 25.7491 130.591 19.8193C130.591 5.46563 122.198 -4.31723e-06 115.226 -4.31723e-06C107.037 -4.31723e-06 97.4723 6.01964 97.4723 22.9824V72.5899C95.8799 74.3028 94.1927 76.0445 92.4057 77.8082C88.7166 81.4492 83.5196 86.2473 77.854 91.4367V63.668C77.854 62.15 76.8285 60.8217 75.3596 60.4405C73.8873 60.0593 72.3507 60.7201 71.6129 62.0467C71.5232 62.2076 62.6863 78.0776 57.205 85.1985C48.319 96.7465 40.2588 101.895 31.0698 101.895C16.4724 101.895 6.66242 87.7822 6.66242 66.777C6.66242 51.605 10.5851 37.9562 18.0073 27.3078C26.692 14.8484 39.7376 6.799 51.2449 6.799C65.3566 6.799 71.6721 17.4118 71.6721 27.9313C71.6721 36.9752 67.6615 45.521 60.2325 52.5623C58.4218 54.2785 55.5466 56.3947 54.203 57.4264C53.4601 57.9991 53.0303 58.5938 52.839 59.3528C52.614 60.2508 52.7849 61.2436 53.3501 62.067C53.9796 62.9768 54.978 63.48 56.0035 63.5088C56.6855 63.5274 57.266 63.3106 57.9852 62.9209C59.6267 62.028 62.6541 59.4409 64.6764 57.5417C73.5421 49.2127 78.3363 38.9304 78.3363 27.9313C78.3363 11.5615 67.1961 0.127072 51.2449 0.127072C37.4175 0.127072 22.5882 9.07946 12.5447 23.4907C4.33726 35.264 0 50.2327 0 66.777C0 91.3825 12.7765 108.566 31.0698 108.566C45.916 108.566 56.1085 97.5529 62.4832 89.2698C65.1214 85.844 68.3858 80.6918 71.1915 76.0394V97.5343C62.8013 105.221 54.6024 112.808 49.908 117.845C42.8023 125.469 40.5803 134.316 43.9631 141.514C46.4254 146.747 51.6189 150 57.5164 150C64.3514 150 69.7294 146.869 73.5015 140.694C76.512 135.763 77.854 128.898 77.854 118.438V100.474C78.2584 100.104 78.6612 99.7368 79.0639 99.3675C86.0259 92.9988 92.6003 86.9825 97.0831 82.5572C97.2134 82.4284 97.342 82.3014 97.4723 82.1726V97.7427C97.4723 104.942 102.046 108.164 106.582 108.164C110.181 108.164 113.148 106.539 115.772 103.532C117.409 101.658 118.983 99.3387 120.262 97.2768C120.79 99.6979 121.793 101.992 122.558 103.168C124.831 106.66 128.466 108.838 132.72 108.838C142.894 108.838 149.22 97.9104 155.862 84.7106C156.713 83.0197 158.336 79.4042 159.487 76.8832C159.236 83.3636 158.976 90.471 158.976 96.7482C158.976 100.833 159.918 103.466 161.448 105.175C163.162 107.083 165.548 108.164 168.234 108.164C175.172 108.164 178.667 102.178 181.75 96.8956C187.636 86.8182 194.219 74.7247 197.706 68.2459C198.558 69.4268 199.556 70.8398 200.664 72.4544C204.966 78.7197 208.258 83.96 208.258 89.6035C208.258 93.7849 207.095 96.7312 204.602 98.8812C202.502 100.691 200.138 101.65 196.508 101.65C193.489 101.65 191.415 100.445 190.003 99.4895C188.494 98.4661 186.515 98.5017 185.331 99.8995C184.143 101.306 184.451 103.269 185.722 104.601C188.11 107.1 192.399 108.255 198.517 108.255C207.059 107.873 214.106 105.44 219.965 100.799C224.332 97.3378 227.752 92.1924 231.059 87.218C235.032 81.2441 239.899 72.9254 242.768 67.9291C243.932 69.4556 245.414 71.4717 247.178 74.0097C250.935 79.4211 253.216 83.1027 253.216 88.5938C253.216 96.1552 247.848 101.436 240.163 101.436C236.06 101.436 233.709 100.091 231.722 99.0964C230.966 98.7169 230.274 98.5153 229.565 98.5322C228.548 98.5559 227.57 99.0134 226.943 99.8995C225.879 101.402 226.309 103.383 227.732 104.548C229.072 105.645 232.827 108.108 240.163 108.108C251.98 108.108 260 100.027 260 88.7192C260 81.3136 256.881 76.3003 252.647 70.2027Z" fill="black"/>
</svg>
